<svg width="53" height="53" viewBox="0 0 53 53" fill="none" xmlns="http://www.w3.org/2000/svg">
<g clip-path="url(#clip0_111_23)">
<g filter="url(#filter0_d_111_23)">
<rect x="3" y="3" width="47" height="47" rx="7" fill="white"/>
</g>
<path d="M8.756 20V11.252H11.312V17.756H15.08V20H8.756ZM15.3705 20L18.1545 11.252H21.7065L24.5025 20H21.9705L21.5385 18.548H18.2625L17.8305 20H15.3705ZM18.8505 16.616H20.9505L20.2425 14.264L19.9425 13.208H19.8585L19.5585 14.264L18.8505 16.616ZM25.2326 20V11.252H29.7566C30.7966 11.252 31.5366 11.46 31.9766 11.876C32.4246 12.284 32.6486 12.824 32.6486 13.496C32.6486 13.984 32.5166 14.404 32.2526 14.756C31.9886 15.1 31.6126 15.316 31.1246 15.404V15.5C31.6526 15.532 32.0766 15.732 32.3966 16.1C32.7246 16.468 32.8886 16.94 32.8886 17.516C32.8886 18.116 32.7486 18.6 32.4686 18.968C32.1886 19.328 31.7926 19.592 31.2806 19.76C30.7766 19.92 30.1886 20 29.5166 20H25.2326ZM29.0606 13.076H27.7046V14.636H29.0606C29.3726 14.636 29.6086 14.576 29.7686 14.456C29.9366 14.328 30.0206 14.152 30.0206 13.928V13.76C30.0206 13.496 29.9326 13.316 29.7566 13.22C29.5806 13.124 29.3486 13.076 29.0606 13.076ZM29.1926 16.424H27.7046V18.176H29.1926C29.4966 18.176 29.7406 18.112 29.9246 17.984C30.1166 17.856 30.2126 17.664 30.2126 17.408V17.192C30.2126 16.96 30.1286 16.776 29.9606 16.64C29.8006 16.496 29.5446 16.424 29.1926 16.424ZM8.756 30V21.252H12.02L13.94 25.8L14.096 26.172H14.156V21.252H16.592V30H13.556L11.384 25.344L11.252 25.068H11.192V30H8.756ZM22.0916 30.12C21.0916 30.12 20.2676 29.932 19.6196 29.556C18.9796 29.18 18.5036 28.656 18.1916 27.984C17.8796 27.312 17.7236 26.532 17.7236 25.644V25.62C17.7236 24.652 17.9036 23.836 18.2636 23.172C18.6236 22.508 19.1316 22.004 19.7876 21.66C20.4436 21.316 21.2116 21.144 22.0916 21.144C22.9716 21.144 23.7396 21.316 24.3956 21.66C25.0516 22.004 25.5596 22.508 25.9196 23.172C26.2876 23.836 26.4716 24.652 26.4716 25.62V25.644C26.4716 26.532 26.3156 27.312 26.0036 27.984C25.6916 28.656 25.2116 29.18 24.5636 29.556C23.9156 29.932 23.0916 30.12 22.0916 30.12ZM22.0916 27.912C22.5956 27.912 23.0036 27.788 23.3156 27.54C23.6276 27.284 23.7836 26.888 23.7836 26.352V24.912C23.7836 24.44 23.6476 24.064 23.3756 23.784C23.1036 23.496 22.6756 23.352 22.0916 23.352C21.5076 23.352 21.0796 23.496 20.8076 23.784C20.5356 24.064 20.3996 24.44 20.3996 24.912V26.352C20.3996 26.888 20.5556 27.284 20.8676 27.54C21.1796 27.788 21.5876 27.912 22.0916 27.912ZM34.4158 23.436H31.9558V30H29.4118V23.436H26.9398V21.252H34.4158V23.436ZM35.2638 30V21.252H42.3318V23.412H37.8198V24.576H41.6958V26.592H37.8198V27.84H42.3318V30H35.2638ZM8.756 40V31.252H13.28C14.32 31.252 15.06 31.46 15.5 31.876C15.948 32.284 16.172 32.824 16.172 33.496C16.172 33.984 16.04 34.404 15.776 34.756C15.512 35.1 15.136 35.316 14.648 35.404V35.5C15.176 35.532 15.6 35.732 15.92 36.1C16.248 36.468 16.412 36.94 16.412 37.516C16.412 38.116 16.272 38.6 15.992 38.968C15.712 39.328 15.316 39.592 14.804 39.76C14.3 39.92 13.712 40 13.04 40H8.756ZM12.584 33.076H11.228V34.636H12.584C12.896 34.636 13.132 34.576 13.292 34.456C13.46 34.328 13.544 34.152 13.544 33.928V33.76C13.544 33.496 13.456 33.316 13.28 33.22C13.104 33.124 12.872 33.076 12.584 33.076ZM12.716 36.424H11.228V38.176H12.716C13.02 38.176 13.264 38.112 13.448 37.984C13.64 37.856 13.736 37.664 13.736 37.408V37.192C13.736 36.96 13.652 36.776 13.484 36.64C13.324 36.496 13.068 36.424 12.716 36.424ZM21.5994 40.12C20.5994 40.12 19.7754 39.932 19.1274 39.556C18.4874 39.18 18.0114 38.656 17.6994 37.984C17.3874 37.312 17.2314 36.532 17.2314 35.644V35.62C17.2314 34.652 17.4114 33.836 17.7714 33.172C18.1314 32.508 18.6394 32.004 19.2954 31.66C19.9514 31.316 20.7194 31.144 21.5994 31.144C22.4794 31.144 23.2474 31.316 23.9034 31.66C24.5594 32.004 25.0674 32.508 25.4274 33.172C25.7954 33.836 25.9794 34.652 25.9794 35.62V35.644C25.9794 36.532 25.8234 37.312 25.5114 37.984C25.1994 38.656 24.7194 39.18 24.0714 39.556C23.4234 39.932 22.5994 40.12 21.5994 40.12ZM21.5994 37.912C22.1034 37.912 22.5114 37.788 22.8234 37.54C23.1354 37.284 23.2914 36.888 23.2914 36.352V34.912C23.2914 34.44 23.1554 34.064 22.8834 33.784C22.6114 33.496 22.1834 33.352 21.5994 33.352C21.0154 33.352 20.5874 33.496 20.3154 33.784C20.0434 34.064 19.9074 34.44 19.9074 34.912V36.352C19.9074 36.888 20.0634 37.284 20.3754 37.54C20.6874 37.788 21.0954 37.912 21.5994 37.912ZM31.0916 40.12C30.0916 40.12 29.2676 39.932 28.6196 39.556C27.9796 39.18 27.5036 38.656 27.1916 37.984C26.8796 37.312 26.7236 36.532 26.7236 35.644V35.62C26.7236 34.652 26.9036 33.836 27.2636 33.172C27.6236 32.508 28.1316 32.004 28.7876 31.66C29.4436 31.316 30.2116 31.144 31.0916 31.144C31.9716 31.144 32.7396 31.316 33.3956 31.66C34.0516 32.004 34.5596 32.508 34.9196 33.172C35.2876 33.836 35.4716 34.652 35.4716 35.62V35.644C35.4716 36.532 35.3156 37.312 35.0036 37.984C34.6916 38.656 34.2116 39.18 33.5636 39.556C32.9156 39.932 32.0916 40.12 31.0916 40.12ZM31.0916 37.912C31.5956 37.912 32.0036 37.788 32.3156 37.54C32.6276 37.284 32.7836 36.888 32.7836 36.352V34.912C32.7836 34.44 32.6476 34.064 32.3756 33.784C32.1036 33.496 31.6756 33.352 31.0916 33.352C30.5076 33.352 30.0796 33.496 29.8076 33.784C29.5356 34.064 29.3996 34.44 29.3996 34.912V36.352C29.3996 36.888 29.5556 37.284 29.8676 37.54C30.1796 37.788 30.5876 37.912 31.0916 37.912ZM36.5998 40V31.252H39.1558V34.72L41.7238 31.252H44.8558L41.7838 34.96L44.9758 40H41.8798L39.9838 36.916L39.1558 37.84V40H36.5998Z" fill="#131313"/>
</g>
<defs>
<filter id="filter0_d_111_23" x="-1" y="-1" width="55" height="55" filterUnits="userSpaceOnUse" color-interpolation-filters="sRGB">
<feFlood flood-opacity="0" result="BackgroundImageFix"/>
<feColorMatrix in="SourceAlpha" type="matrix" values="0 0 0 0 0 0 0 0 0 0 0 0 0 0 0 0 0 0 127 0" result="hardAlpha"/>
<feOffset/>
<feGaussianBlur stdDeviation="2"/>
<feComposite in2="hardAlpha" operator="out"/>
<feColorMatrix type="matrix" values="0 0 0 0 0 0 0 0 0 0 0 0 0 0 0 0 0 0 0.25 0"/>
<feBlend mode="normal" in2="BackgroundImageFix" result="effect1_dropShadow_111_23"/>
<feBlend mode="normal" in="SourceGraphic" in2="effect1_dropShadow_111_23" result="shape"/>
</filter>
<clipPath id="clip0_111_23">
<rect width="53" height="53" fill="white"/>
</clipPath>
</defs>
</svg>
