<svg width="55" height="55" viewBox="0 0 55 55" fill="none" xmlns="http://www.w3.org/2000/svg">
<g clip-path="url(#clip0_116_363)">
<circle cx="27.5" cy="27.5" r="27.25" stroke="#F0F0F0" stroke-width="0.5"/>
<path d="M7.819 21V11.523H10.588V18.569H14.67V21H7.819ZM14.9847 21L18.0007 11.523H21.8487L24.8777 21H22.1347L21.6667 19.427H18.1177L17.6497 21H14.9847ZM18.7547 17.334H21.0297L20.2627 14.786L19.9377 13.642H19.8467L19.5217 14.786L18.7547 17.334ZM25.6686 21V11.523H30.5696C31.6963 11.523 32.4979 11.7483 32.9746 12.199C33.4599 12.641 33.7026 13.226 33.7026 13.954C33.7026 14.4827 33.5596 14.9377 33.2736 15.319C32.9876 15.6917 32.5803 15.9257 32.0516 16.021V16.125C32.6236 16.1597 33.0829 16.3763 33.4296 16.775C33.7849 17.1737 33.9626 17.685 33.9626 18.309C33.9626 18.959 33.8109 19.4833 33.5076 19.882C33.2043 20.272 32.7753 20.558 32.2206 20.74C31.6746 20.9133 31.0376 21 30.3096 21H25.6686ZM29.8156 13.499H28.3466V15.189H29.8156C30.1536 15.189 30.4093 15.124 30.5826 14.994C30.7646 14.8553 30.8556 14.6647 30.8556 14.422V14.24C30.8556 13.954 30.7603 13.759 30.5696 13.655C30.3789 13.551 30.1276 13.499 29.8156 13.499ZM29.9586 17.126H28.3466V19.024H29.9586C30.2879 19.024 30.5523 18.9547 30.7516 18.816C30.9596 18.6773 31.0636 18.4693 31.0636 18.192V17.958C31.0636 17.7067 30.9726 17.5073 30.7906 17.36C30.6173 17.204 30.3399 17.126 29.9586 17.126ZM7.819 32V22.523H11.355L13.435 27.45L13.604 27.853H13.669V22.523H16.308V32H13.019L10.666 26.956L10.523 26.657H10.458V32H7.819ZM22.2659 32.13C21.1825 32.13 20.2899 31.9263 19.5879 31.519C18.8945 31.1117 18.3789 30.544 18.0409 29.816C17.7029 29.088 17.5339 28.243 17.5339 27.281V27.255C17.5339 26.2063 17.7289 25.3223 18.1189 24.603C18.5089 23.8837 19.0592 23.3377 19.7699 22.965C20.4805 22.5923 21.3125 22.406 22.2659 22.406C23.2192 22.406 24.0512 22.5923 24.7619 22.965C25.4725 23.3377 26.0229 23.8837 26.4129 24.603C26.8115 25.3223 27.0109 26.2063 27.0109 27.255V27.281C27.0109 28.243 26.8419 29.088 26.5039 29.816C26.1659 30.544 25.6459 31.1117 24.9439 31.519C24.2419 31.9263 23.3492 32.13 22.2659 32.13ZM22.2659 29.738C22.8119 29.738 23.2539 29.6037 23.5919 29.335C23.9299 29.0577 24.0989 28.6287 24.0989 28.048V26.488C24.0989 25.9767 23.9515 25.5693 23.6569 25.266C23.3622 24.954 22.8985 24.798 22.2659 24.798C21.6332 24.798 21.1695 24.954 20.8749 25.266C20.5802 25.5693 20.4329 25.9767 20.4329 26.488V28.048C20.4329 28.6287 20.6019 29.0577 20.9399 29.335C21.2779 29.6037 21.7199 29.738 22.2659 29.738ZM35.6171 24.889H32.9521V32H30.1961V24.889H27.5181V22.523H35.6171V24.889ZM36.5358 32V22.523H44.1928V24.863H39.3048V26.124H43.5038V28.308H39.3048V29.66H44.1928V32H36.5358ZM7.819 43V33.523H12.72C13.8467 33.523 14.6483 33.7483 15.125 34.199C15.6103 34.641 15.853 35.226 15.853 35.954C15.853 36.4827 15.71 36.9377 15.424 37.319C15.138 37.6917 14.7307 37.9257 14.202 38.021V38.125C14.774 38.1597 15.2333 38.3763 15.58 38.775C15.9353 39.1737 16.113 39.685 16.113 40.309C16.113 40.959 15.9613 41.4833 15.658 41.882C15.3547 42.272 14.9257 42.558 14.371 42.74C13.825 42.9133 13.188 43 12.46 43H7.819ZM11.966 35.499H10.497V37.189H11.966C12.304 37.189 12.5597 37.124 12.733 36.994C12.915 36.8553 13.006 36.6647 13.006 36.422V36.24C13.006 35.954 12.9107 35.759 12.72 35.655C12.5293 35.551 12.278 35.499 11.966 35.499ZM12.109 39.126H10.497V41.024H12.109C12.4383 41.024 12.7027 40.9547 12.902 40.816C13.11 40.6773 13.214 40.4693 13.214 40.192V39.958C13.214 39.7067 13.123 39.5073 12.941 39.36C12.7677 39.204 12.4903 39.126 12.109 39.126ZM21.7327 43.13C20.6493 43.13 19.7567 42.9263 19.0547 42.519C18.3613 42.1117 17.8457 41.544 17.5077 40.816C17.1697 40.088 17.0007 39.243 17.0007 38.281V38.255C17.0007 37.2063 17.1957 36.3223 17.5857 35.603C17.9757 34.8837 18.526 34.3377 19.2367 33.965C19.9473 33.5923 20.7793 33.406 21.7327 33.406C22.686 33.406 23.518 33.5923 24.2287 33.965C24.9393 34.3377 25.4897 34.8837 25.8797 35.603C26.2783 36.3223 26.4777 37.2063 26.4777 38.255V38.281C26.4777 39.243 26.3087 40.088 25.9707 40.816C25.6327 41.544 25.1127 42.1117 24.4107 42.519C23.7087 42.9263 22.816 43.13 21.7327 43.13ZM21.7327 40.738C22.2787 40.738 22.7207 40.6037 23.0587 40.335C23.3967 40.0577 23.5657 39.6287 23.5657 39.048V37.488C23.5657 36.9767 23.4183 36.5693 23.1237 36.266C22.829 35.954 22.3653 35.798 21.7327 35.798C21.1 35.798 20.6363 35.954 20.3417 36.266C20.047 36.5693 19.8997 36.9767 19.8997 37.488V39.048C19.8997 39.6287 20.0687 40.0577 20.4067 40.335C20.7447 40.6037 21.1867 40.738 21.7327 40.738ZM32.0159 43.13C30.9325 43.13 30.0399 42.9263 29.3379 42.519C28.6445 42.1117 28.1289 41.544 27.7909 40.816C27.4529 40.088 27.2839 39.243 27.2839 38.281V38.255C27.2839 37.2063 27.4789 36.3223 27.8689 35.603C28.2589 34.8837 28.8092 34.3377 29.5199 33.965C30.2305 33.5923 31.0625 33.406 32.0159 33.406C32.9692 33.406 33.8012 33.5923 34.5119 33.965C35.2225 34.3377 35.7729 34.8837 36.1629 35.603C36.5615 36.3223 36.7609 37.2063 36.7609 38.255V38.281C36.7609 39.243 36.5919 40.088 36.2539 40.816C35.9159 41.544 35.3959 42.1117 34.6939 42.519C33.9919 42.9263 33.0992 43.13 32.0159 43.13ZM32.0159 40.738C32.5619 40.738 33.0039 40.6037 33.3419 40.335C33.6799 40.0577 33.8489 39.6287 33.8489 39.048V37.488C33.8489 36.9767 33.7015 36.5693 33.4069 36.266C33.1122 35.954 32.6485 35.798 32.0159 35.798C31.3832 35.798 30.9195 35.954 30.6249 36.266C30.3302 36.5693 30.1829 36.9767 30.1829 37.488V39.048C30.1829 39.6287 30.3519 40.0577 30.6899 40.335C31.0279 40.6037 31.4699 40.738 32.0159 40.738ZM37.9831 43V33.523H40.7521V37.28L43.5341 33.523H46.9271L43.5991 37.54L47.0571 43H43.7031L41.6491 39.659L40.7521 40.66V43H37.9831Z" fill="#121212"/>
</g>
<defs>
<clipPath id="clip0_116_363">
<rect width="55" height="55" fill="white"/>
</clipPath>
</defs>
</svg>
