<svg xmlns="http://www.w3.org/2000/svg" height="48" viewBox="0 96 960 960" width="48"><path d="M150 918q-36.775 0-63.888-27.612Q59 862.775 59 827V325q0-36.188 27.112-64.094Q113.225 233 150 233h660q37.188 0 64.594 27.906Q902 288.812 902 325v502q0 35.775-27.406 63.388Q847.188 918 810 918H150Zm330-305q6 0 11.375-1.5t13.764-6.55L797.11 409.918Q802 407.5 806 400.75q4-6.75 4-16.403 0-15.673-16-27.01Q778 346 763 358L480 543 199 358q-16-10-32.5-1T150 383.841q0 8.864 4.5 15.511 4.5 6.648 9.689 10.713l290.693 194.886q8.368 5.049 13.743 6.549T480 613Z"/></svg>