<svg width="530" height="50" viewBox="0 0 530 50" fill="none" xmlns="http://www.w3.org/2000/svg">
<g clip-path="url(#clip0_1_16)">
<path d="M15.0203 43.9949C10.307 43.9949 6.63916 42.4006 4.01675 39.212C1.39434 35.988 0.0831299 31.2583 0.0831299 25.0229C0.0831299 18.7874 1.39434 14.0046 4.01675 10.6743C6.63916 7.30857 10.307 5.62572 15.0203 5.62572C18.1388 5.62572 20.7435 6.33429 22.8343 7.75143C24.9606 9.16857 26.6085 11.1703 27.7779 13.7566L24.1633 15.9354C23.4191 14.0223 22.285 12.4989 20.7612 11.3651C19.2374 10.196 17.3237 9.61143 15.0203 9.61143C13.4255 9.61143 11.9903 9.91257 10.7145 10.5149C9.4742 11.1171 8.41106 11.9851 7.52511 13.1189C6.6746 14.2171 6.019 15.5457 5.5583 17.1046C5.09761 18.628 4.86726 20.3463 4.86726 22.2594V27.7863C4.86726 31.6126 5.75321 34.6063 7.52511 36.7674C9.29701 38.9286 11.7954 40.0091 15.0203 40.0091C17.3946 40.0091 19.3791 39.4069 20.9738 38.2023C22.5686 36.9623 23.738 35.3326 24.4822 33.3131L28.0437 35.5451C26.8743 38.1669 25.191 40.2394 22.9938 41.7629C20.7966 43.2509 18.1388 43.9949 15.0203 43.9949ZM42.8426 43.9949C40.4328 43.9949 38.2534 43.5874 36.3043 42.7726C34.3907 41.9223 32.7428 40.7 31.3607 39.1057C30.0141 37.476 28.9687 35.4743 28.2245 33.1006C27.4803 30.6914 27.1082 27.928 27.1082 24.8103C27.1082 21.6926 27.4803 18.9469 28.2245 16.5731C28.9687 14.1994 30.0141 12.1977 31.3607 10.568C32.7428 8.93829 34.3907 7.716 36.3043 6.90115C38.2534 6.05086 40.4328 5.62572 42.8426 5.62572C45.217 5.62572 47.3787 6.05086 49.3278 6.90115C51.2769 7.716 52.9248 8.93829 54.2714 10.568C55.6535 12.1977 56.7166 14.1994 57.4608 16.5731C58.205 18.9469 58.5771 21.6926 58.5771 24.8103C58.5771 27.928 58.205 30.6914 57.4608 33.1006C56.7166 35.4743 55.6535 37.476 54.2714 39.1057C52.9248 40.7 51.2769 41.9223 49.3278 42.7726C47.3787 43.5874 45.217 43.9949 42.8426 43.9949ZM42.8426 40.0091C44.4373 40.0091 45.908 39.7257 47.2547 39.1589C48.6013 38.592 49.7531 37.7771 50.7099 36.7143C51.7021 35.6514 52.4641 34.376 52.9956 32.888C53.5272 31.4 53.793 29.7349 53.793 27.8926V21.728C53.793 19.8857 53.5272 18.2206 52.9956 16.7326C52.4641 15.2446 51.7021 13.9691 50.7099 12.9063C49.7531 11.8434 48.6013 11.0286 47.2547 10.4617C45.908 9.89486 44.4373 9.61143 42.8426 9.61143C41.2479 9.61143 39.7773 9.89486 38.4306 10.4617C37.084 11.0286 35.9145 11.8434 34.9222 12.9063C33.9654 13.9691 33.2212 15.2446 32.6896 16.7326C32.1581 18.2206 31.8923 19.8857 31.8923 21.728V27.8926C31.8923 29.7349 32.1581 31.4 32.6896 32.888C33.2212 34.376 33.9654 35.6514 34.9222 36.7143C35.9145 37.7771 37.084 38.592 38.4306 39.1589C39.7773 39.7257 41.2479 40.0091 42.8426 40.0091ZM70.2721 20.7183L65.8069 12.4811H65.6474V43.3571H61.2886V6.26343H66.4448L79.9998 28.9023L84.465 37.1394H84.6245V6.26343H88.9834V43.3571H83.8272L70.2721 20.7183ZM102.54 20.7183L98.0748 12.4811H97.9153V43.3571H93.5564V6.26343H98.7127L112.268 28.9023L116.733 37.1394H116.892V6.26343H121.251V43.3571H116.095L102.54 20.7183ZM139.699 43.9949C137.289 43.9949 135.109 43.5874 133.16 42.7726C131.247 41.9223 129.599 40.7 128.217 39.1057C126.87 37.476 125.825 35.4743 125.08 33.1006C124.336 30.6914 123.964 27.928 123.964 24.8103C123.964 21.6926 124.336 18.9469 125.08 16.5731C125.825 14.1994 126.87 12.1977 128.217 10.568C129.599 8.93829 131.247 7.716 133.16 6.90115C135.109 6.05086 137.289 5.62572 139.699 5.62572C142.073 5.62572 144.235 6.05086 146.184 6.90115C148.133 7.716 149.781 8.93829 151.127 10.568C152.509 12.1977 153.572 14.1994 154.317 16.5731C155.061 18.9469 155.433 21.6926 155.433 24.8103C155.433 27.928 155.061 30.6914 154.317 33.1006C153.572 35.4743 152.509 37.476 151.127 39.1057C149.781 40.7 148.133 41.9223 146.184 42.7726C144.235 43.5874 142.073 43.9949 139.699 43.9949ZM139.699 40.0091C141.293 40.0091 142.764 39.7257 144.111 39.1589C145.457 38.592 146.609 37.7771 147.566 36.7143C148.558 35.6514 149.32 34.376 149.851 32.888C150.383 31.4 150.649 29.7349 150.649 27.8926V21.728C150.649 19.8857 150.383 18.2206 149.851 16.7326C149.32 15.2446 148.558 13.9691 147.566 12.9063C146.609 11.8434 145.457 11.0286 144.111 10.4617C142.764 9.89486 141.293 9.61143 139.699 9.61143C138.104 9.61143 136.633 9.89486 135.286 10.4617C133.94 11.0286 132.77 11.8434 131.778 12.9063C130.821 13.9691 130.077 15.2446 129.546 16.7326C129.014 18.2206 128.748 19.8857 128.748 21.728V27.8926C128.748 29.7349 129.014 31.4 129.546 32.888C130.077 34.376 130.821 35.6514 131.778 36.7143C132.77 37.7771 133.94 38.592 135.286 39.1589C136.633 39.7257 138.104 40.0091 139.699 40.0091ZM162.609 43.3571H158.144V6.26343H172.922C176.182 6.26343 178.716 7.16686 180.523 8.97372C182.366 10.7806 183.287 13.3846 183.287 16.7857C183.287 19.5137 182.65 21.7634 181.374 23.5349C180.133 25.2709 178.291 26.4223 175.845 26.9891L184.351 43.3571H179.301L171.274 27.4143H162.609V43.3571ZM172.922 23.588C174.694 23.588 176.058 23.1274 177.015 22.2063C178.007 21.2851 178.503 19.9743 178.503 18.2737V15.5103C178.503 13.8097 178.007 12.4989 177.015 11.5777C176.058 10.6566 174.694 10.196 172.922 10.196H162.609V23.588H172.922ZM214.566 6.26343V33.7383C214.566 35.2971 214.3 36.7143 213.769 37.9897C213.272 39.2651 212.546 40.3457 211.589 41.2314C210.668 42.1171 209.551 42.808 208.24 43.304C206.929 43.7646 205.494 43.9949 203.935 43.9949C201.064 43.9949 198.743 43.2331 196.971 41.7097C195.234 40.1509 194.118 38.096 193.622 35.5451L197.662 34.5886C198.016 36.1829 198.69 37.4937 199.682 38.5211C200.674 39.5131 202.127 40.0091 204.041 40.0091C205.954 40.0091 207.443 39.4246 208.506 38.2554C209.569 37.0863 210.101 35.3149 210.101 32.9411V10.196H197.343V6.26343H214.566ZM241.778 43.3571L238.057 32.4097H223.067L219.345 43.3571H214.827L227.798 6.26343H233.486L246.456 43.3571H241.778ZM230.668 10.4086H230.402L224.13 28.4771H236.941L230.668 10.4086ZM251.752 43.3571H247.286V6.26343H262.064C265.324 6.26343 267.858 7.16686 269.666 8.97372C271.508 10.7806 272.43 13.3846 272.43 16.7857C272.43 19.5137 271.792 21.7634 270.516 23.5349C269.276 25.2709 267.433 26.4223 264.988 26.9891L273.493 43.3571H268.443L260.416 27.4143H251.752V43.3571ZM262.064 23.588C263.836 23.588 265.2 23.1274 266.157 22.2063C267.15 21.2851 267.646 19.9743 267.646 18.2737V15.5103C267.646 13.8097 267.15 12.4989 266.157 11.5777C265.2 10.6566 263.836 10.196 262.064 10.196H251.752V23.588H262.064ZM280.437 43.3571H275.971V6.26343H290.749C294.009 6.26343 296.543 7.16686 298.35 8.97372C300.193 10.7806 301.115 13.3846 301.115 16.7857C301.115 19.5137 300.477 21.7634 299.201 23.5349C297.961 25.2709 296.118 26.4223 293.673 26.9891L302.178 43.3571H297.128L289.101 27.4143H280.437V43.3571ZM290.749 23.588C292.521 23.588 293.885 23.1274 294.842 22.2063C295.834 21.2851 296.331 19.9743 296.331 18.2737V15.5103C296.331 13.8097 295.834 12.4989 294.842 11.5777C293.885 10.6566 292.521 10.196 290.749 10.196H280.437V23.588H290.749ZM304.658 43.3571V6.26343H327.303V10.196H309.124V22.6314H326.24V26.564H309.124V39.4246H327.303V43.3571H304.658ZM342.825 10.196V43.3571H338.36V10.196H326.559V6.26343H354.626V10.196H342.825ZM369.176 10.196V43.3571H364.71V10.196H352.909V6.26343H380.976V10.196H369.176Z" fill="black"/>
<path d="M530 0H381V50H530V0Z" fill="#131313"/>
<path d="M393.171 22.654V4.10715H395.403V20.7143H404.201V22.654H393.171ZM418.701 22.654L417.133 17.3663H410.622L409.053 22.654H406.741L412.429 4.10715H415.379L421.067 22.654H418.701ZM413.997 6.472H413.758L411.153 15.4266H416.602L413.997 6.472ZM424.194 4.10715H430.493C432.088 4.10715 433.337 4.54115 434.241 5.40915C435.145 6.27715 435.597 7.43743 435.597 8.89C435.597 10.006 435.322 10.8829 434.773 11.5206C434.241 12.1583 433.55 12.61 432.699 12.8757V12.9554C433.745 13.2034 434.604 13.6729 435.278 14.3637C435.951 15.0369 436.288 16.02 436.288 17.3131C436.288 18.0571 436.164 18.7569 435.915 19.4123C435.667 20.0677 435.313 20.6346 434.852 21.1129C434.409 21.5911 433.878 21.972 433.258 22.2554C432.655 22.5211 432 22.654 431.291 22.654H424.194V4.10715ZM430.626 20.7143C431.654 20.7143 432.46 20.484 433.045 20.0234C433.63 19.5629 433.922 18.8543 433.922 17.8977V16.8083C433.922 15.8694 433.63 15.1697 433.045 14.7091C432.46 14.2309 431.654 13.9917 430.626 13.9917H426.427V20.7143H430.626ZM430.254 12.1583C431.193 12.1583 431.929 11.9546 432.46 11.5471C432.992 11.122 433.258 10.4843 433.258 9.634V8.59772C433.258 7.74743 432.992 7.10972 432.46 6.68458C431.929 6.25943 431.193 6.04686 430.254 6.04686H426.427V12.1583H430.254Z" fill="white"/>
<path d="M393.171 22.654H392.063V23.7611H393.171V22.654ZM393.171 4.10714V3H392.063V4.10714H393.171ZM395.403 4.10714H396.511V3H395.403V4.10714ZM395.403 20.7143H394.296V21.8214H395.403V20.7143ZM404.201 20.7143H405.308V19.6071H404.201V20.7143ZM404.201 22.654V23.7611H405.308V22.654H404.201ZM394.278 22.654V4.10714H392.063V22.654H394.278ZM393.171 5.21429H395.403V3H393.171V5.21429ZM394.296 4.10714V20.7143H396.511V4.10714H394.296ZM395.403 21.8214H404.201V19.6071H395.403V21.8214ZM403.093 20.7143V22.654H405.308V20.7143H403.093ZM404.201 21.5469H393.171V23.7611H404.201V21.5469ZM418.701 22.654L417.641 22.9687L417.875 23.7611H418.701V22.654ZM417.133 17.3663L418.196 17.0516L417.962 16.2591H417.133V17.3663ZM410.622 17.3663V16.2591H409.795L409.561 17.0516L410.622 17.3663ZM409.053 22.654V23.7611H409.882L410.117 22.9687L409.053 22.654ZM406.741 22.654L405.682 22.3294L405.244 23.7611H406.741V22.654ZM412.429 4.10714V3H411.612L411.37 3.78262L412.429 4.10714ZM415.379 4.10714L416.438 3.78262L416.199 3H415.379V4.10714ZM421.067 22.654V23.7611H422.566L422.126 22.3294L421.067 22.654ZM413.997 6.472L415.06 6.16284L414.83 5.36486H413.997V6.472ZM413.758 6.472V5.36486H412.927L412.695 6.16284L413.758 6.472ZM411.153 15.4266L410.09 15.1175L409.678 16.5337H411.153V15.4266ZM416.602 15.4266V16.5337H418.077L417.665 15.1175L416.602 15.4266ZM419.765 22.3393L418.196 17.0516L416.072 17.6809L417.641 22.9687L419.765 22.3393ZM417.133 16.2591H410.622V18.4734H417.133V16.2591ZM409.561 17.0516L407.993 22.3393L410.117 22.9687L411.685 17.6809L409.561 17.0516ZM409.053 21.5469H406.741V23.7611H409.053V21.5469ZM407.8 22.9786L413.488 4.43167L411.37 3.78262L405.682 22.3294L407.8 22.9786ZM412.429 5.21429H415.379V3H412.429V5.21429ZM414.32 4.43167L420.008 22.9786L422.126 22.3294L416.438 3.78262L414.32 4.43167ZM421.067 21.5469H418.701V23.7611H421.067V21.5469ZM413.997 5.36486H413.758V7.57914H413.997V5.36486ZM412.695 6.16284L410.09 15.1175L412.216 15.7357L414.821 6.78116L412.695 6.16284ZM411.153 16.5337H416.602V14.3194H411.153V16.5337ZM417.665 15.1175L415.06 6.16284L412.934 6.78116L415.539 15.7357L417.665 15.1175ZM424.194 4.10714V3H423.087V4.10714H424.194ZM434.773 11.5206L433.933 10.7981L433.922 10.8118L434.773 11.5206ZM432.699 12.8757L432.367 11.8191L431.592 12.0617V12.8757H432.699ZM432.699 12.9554H431.592V13.8305L432.443 14.0327L432.699 12.9554ZM435.278 14.3637L434.482 15.1365L434.494 15.1467L435.278 14.3637ZM434.852 21.1129L434.053 20.3447L434.039 20.3607L434.852 21.1129ZM433.258 22.2554L433.703 23.2685L433.718 23.2623L433.258 22.2554ZM424.194 22.654H423.087V23.7611H424.194V22.654ZM433.045 14.7091L432.343 15.5661L432.358 15.5787L433.045 14.7091ZM426.427 13.9917V12.8846H425.319V13.9917H426.427ZM426.427 20.7143H425.319V21.8214H426.427V20.7143ZM432.46 11.5471L433.134 12.426L433.151 12.4116L432.46 11.5471ZM426.427 6.04686V4.93971H425.319V6.04686H426.427ZM426.427 12.1583H425.319V13.2654H426.427V12.1583ZM424.194 5.21429H430.493V3H424.194V5.21429ZM430.493 5.21429C431.882 5.21429 432.828 5.58761 433.472 6.2075L435.007 4.61078C433.845 3.49467 432.292 3 430.493 3V5.21429ZM433.472 6.2075C434.124 6.83311 434.489 7.68645 434.489 8.89H436.704C436.704 7.18841 436.164 5.72118 435.007 4.61078L433.472 6.2075ZM434.489 8.89C434.489 9.82841 434.259 10.4189 433.933 10.7981L435.612 12.2431C436.383 11.3467 436.704 10.1836 436.704 8.89H434.489ZM433.922 10.8118C433.537 11.2738 433.032 11.612 432.367 11.8191L433.029 13.9324C434.068 13.608 434.945 13.0427 435.623 12.2294L433.922 10.8118ZM431.592 12.8757V12.9554H433.807V12.8757H431.592ZM432.443 14.0327C433.309 14.2379 433.973 14.6126 434.485 15.1363L436.071 13.5911C435.233 12.7331 434.181 12.1689 432.954 11.8782L432.443 14.0327ZM434.494 15.1467C434.894 15.5466 435.18 16.2056 435.18 17.3131H437.395C437.395 15.8344 437.007 14.5271 436.059 13.5807L434.494 15.1467ZM435.18 17.3131C435.18 17.9316 435.076 18.4978 434.879 19.0206L436.95 19.804C437.249 19.0159 437.395 18.1827 437.395 17.3131H435.18ZM434.879 19.0206C434.682 19.5436 434.405 19.9802 434.053 20.3447L435.65 21.8808C436.219 21.2887 436.653 20.5918 436.95 19.804L434.879 19.0206ZM434.039 20.3607C433.701 20.7267 433.289 21.023 432.797 21.2486L433.718 23.2623C434.465 22.921 435.118 22.4556 435.665 21.865L434.039 20.3607ZM432.81 21.2424C432.358 21.4415 431.858 21.5469 431.291 21.5469V23.7611C432.141 23.7611 432.95 23.6008 433.703 23.2685L432.81 21.2424ZM431.291 21.5469H424.194V23.7611H431.291V21.5469ZM425.302 22.654V4.10714H423.087V22.654H425.302ZM430.626 21.8214C431.809 21.8214 432.888 21.5566 433.729 20.893L432.358 19.1539C432.033 19.4112 431.499 19.6071 430.626 19.6071V21.8214ZM433.729 20.893C434.653 20.1649 435.03 19.0881 435.03 17.8977H432.815C432.815 18.6205 432.604 18.9608 432.358 19.1539L433.729 20.893ZM435.03 17.8977V16.8083H432.815V17.8977H435.03ZM435.03 16.8083C435.03 15.6274 434.649 14.5637 433.729 13.8396L432.358 15.5787C432.609 15.7758 432.815 16.1114 432.815 16.8083H435.03ZM433.745 13.8522C432.901 13.1622 431.818 12.8846 430.626 12.8846V15.0989C431.49 15.0989 432.017 15.2995 432.343 15.5661L433.745 13.8522ZM430.626 12.8846H426.427V15.0989H430.626V12.8846ZM425.319 13.9917V20.7143H427.534V13.9917H425.319ZM426.427 21.8214H430.626V19.6071H426.427V21.8214ZM430.254 13.2654C431.34 13.2654 432.345 13.0309 433.134 12.426L431.785 10.6685C431.512 10.8785 431.045 11.0511 430.254 11.0511V13.2654ZM433.151 12.4116C434.011 11.7249 434.365 10.7286 434.365 9.634H432.15C432.15 10.2399 431.973 10.519 431.767 10.6826L433.151 12.4116ZM434.365 9.634V8.59771H432.15V9.634H434.365ZM434.365 8.59771C434.365 7.50308 434.011 6.50672 433.151 5.82005L431.767 7.54909C431.973 7.71271 432.15 7.99178 432.15 8.59771H434.365ZM433.151 5.82005C432.361 5.1876 431.351 4.93971 430.254 4.93971V7.154C431.036 7.154 431.495 7.33125 431.767 7.54909L433.151 5.82005ZM430.254 4.93971H426.427V7.154H430.254V4.93971ZM425.319 6.04686V12.1583H427.534V6.04686H425.319ZM426.427 13.2654H430.254V11.0511H426.427V13.2654Z" fill="white"/>
<path d="M394.313 29.0931H394.127V44.7969H392.107V26.25H395.27L401.596 41.7943H401.782V26.25H403.802V44.7969H400.639L394.313 29.0931ZM413.891 45.1157C412.757 45.1157 411.782 44.9031 410.967 44.478C410.152 44.0351 409.479 43.4063 408.947 42.5914C408.416 41.7766 408.026 40.7757 407.778 39.5889C407.53 38.402 407.406 37.0469 407.406 35.5234C407.406 34.0177 407.53 32.6714 407.778 31.4846C408.026 30.28 408.416 29.2703 408.947 28.4554C409.479 27.6406 410.152 27.0206 410.967 26.5954C411.782 26.1526 412.757 25.9311 413.891 25.9311C415.025 25.9311 415.999 26.1526 416.814 26.5954C417.629 27.0206 418.303 27.6406 418.834 28.4554C419.366 29.2703 419.756 30.28 420.004 31.4846C420.252 32.6714 420.376 34.0177 420.376 35.5234C420.376 37.0469 420.252 38.402 420.004 39.5889C419.756 40.7757 419.366 41.7766 418.834 42.5914C418.303 43.4063 417.629 44.0351 416.814 44.478C415.999 44.9031 415.025 45.1157 413.891 45.1157ZM413.891 43.176C414.635 43.176 415.264 43.0343 415.778 42.7509C416.292 42.4497 416.717 42.0334 417.054 41.502C417.39 40.9706 417.629 40.3329 417.771 39.5889C417.931 38.8271 418.01 37.9769 418.01 37.038V34.0089C418.01 33.0877 417.931 32.2463 417.771 31.4846C417.629 30.7229 417.39 30.0763 417.054 29.5449C416.717 29.0134 416.292 28.606 415.778 28.3226C415.264 28.0214 414.635 27.8709 413.891 27.8709C413.147 27.8709 412.518 28.0214 412.004 28.3226C411.49 28.606 411.065 29.0134 410.728 29.5449C410.391 30.0763 410.143 30.7229 409.984 31.4846C409.842 32.2463 409.771 33.0877 409.771 34.0089V37.038C409.771 37.9769 409.842 38.8271 409.984 39.5889C410.143 40.3329 410.391 40.9706 410.728 41.502C411.065 42.0334 411.49 42.4497 412.004 42.7509C412.518 43.0343 413.147 43.176 413.891 43.176ZM430.945 28.1897V44.7969H428.713V28.1897H422.52V26.25H437.138V28.1897H430.945ZM440.184 44.7969V26.25H451.612V28.1897H442.416V34.434H451.293V36.3737H442.416V42.8571H451.612V44.7969H440.184ZM456.066 26.25H462.366C463.96 26.25 465.209 26.684 466.113 27.552C467.017 28.42 467.469 29.5803 467.469 31.0329C467.469 32.1489 467.194 33.0257 466.645 33.6634C466.113 34.3011 465.422 34.7529 464.572 35.0186V35.0983C465.617 35.3463 466.476 35.8157 467.15 36.5066C467.823 37.1797 468.16 38.1629 468.16 39.456C468.16 40.2 468.036 40.8997 467.788 41.5551C467.539 42.2106 467.185 42.7774 466.724 43.2557C466.281 43.734 465.75 44.1149 465.13 44.3983C464.527 44.664 463.872 44.7969 463.163 44.7969H456.066V26.25ZM462.498 42.8571C463.526 42.8571 464.332 42.6269 464.917 42.1663C465.502 41.7057 465.794 40.9971 465.794 40.0406V38.9511C465.794 38.0123 465.502 37.3126 464.917 36.852C464.332 36.3737 463.526 36.1346 462.498 36.1346H458.299V42.8571H462.498ZM462.126 34.3011C463.065 34.3011 463.801 34.0974 464.332 33.69C464.864 33.2649 465.13 32.6271 465.13 31.7769V30.7406C465.13 29.8903 464.864 29.2526 464.332 28.8274C463.801 28.4023 463.065 28.1897 462.126 28.1897H458.299V34.3011H462.126ZM477.639 45.1157C476.505 45.1157 475.531 44.9031 474.716 44.478C473.901 44.0351 473.227 43.4063 472.696 42.5914C472.164 41.7766 471.774 40.7757 471.526 39.5889C471.278 38.402 471.154 37.0469 471.154 35.5234C471.154 34.0177 471.278 32.6714 471.526 31.4846C471.774 30.28 472.164 29.2703 472.696 28.4554C473.227 27.6406 473.901 27.0206 474.716 26.5954C475.531 26.1526 476.505 25.9311 477.639 25.9311C478.773 25.9311 479.748 26.1526 480.563 26.5954C481.378 27.0206 482.051 27.6406 482.583 28.4554C483.114 29.2703 483.504 30.28 483.752 31.4846C484 32.6714 484.124 34.0177 484.124 35.5234C484.124 37.0469 484 38.402 483.752 39.5889C483.504 40.7757 483.114 41.7766 482.583 42.5914C482.051 43.4063 481.378 44.0351 480.563 44.478C479.748 44.9031 478.773 45.1157 477.639 45.1157ZM477.639 43.176C478.383 43.176 479.013 43.0343 479.526 42.7509C480.04 42.4497 480.465 42.0334 480.802 41.502C481.139 40.9706 481.378 40.3329 481.52 39.5889C481.679 38.8271 481.759 37.9769 481.759 37.038V34.0089C481.759 33.0877 481.679 32.2463 481.52 31.4846C481.378 30.7229 481.139 30.0763 480.802 29.5449C480.465 29.0134 480.04 28.606 479.526 28.3226C479.013 28.0214 478.383 27.8709 477.639 27.8709C476.895 27.8709 476.266 28.0214 475.752 28.3226C475.238 28.606 474.813 29.0134 474.476 29.5449C474.14 30.0763 473.892 30.7229 473.732 31.4846C473.591 32.2463 473.52 33.0877 473.52 34.0089V37.038C473.52 37.9769 473.591 38.8271 473.732 39.5889C473.892 40.3329 474.14 40.9706 474.476 41.502C474.813 42.0334 475.238 42.4497 475.752 42.7509C476.266 43.0343 476.895 43.176 477.639 43.176ZM493.575 45.1157C492.441 45.1157 491.467 44.9031 490.652 44.478C489.837 44.0351 489.163 43.4063 488.632 42.5914C488.1 41.7766 487.71 40.7757 487.462 39.5889C487.214 38.402 487.09 37.0469 487.09 35.5234C487.09 34.0177 487.214 32.6714 487.462 31.4846C487.71 30.28 488.1 29.2703 488.632 28.4554C489.163 27.6406 489.837 27.0206 490.652 26.5954C491.467 26.1526 492.441 25.9311 493.575 25.9311C494.709 25.9311 495.684 26.1526 496.499 26.5954C497.314 27.0206 497.987 27.6406 498.519 28.4554C499.05 29.2703 499.44 30.28 499.688 31.4846C499.936 32.6714 500.06 34.0177 500.06 35.5234C500.06 37.0469 499.936 38.402 499.688 39.5889C499.44 40.7757 499.05 41.7766 498.519 42.5914C497.987 43.4063 497.314 44.0351 496.499 44.478C495.684 44.9031 494.709 45.1157 493.575 45.1157ZM493.575 43.176C494.32 43.176 494.949 43.0343 495.462 42.7509C495.976 42.4497 496.402 42.0334 496.738 41.502C497.075 40.9706 497.314 40.3329 497.456 39.5889C497.615 38.8271 497.695 37.9769 497.695 37.038V34.0089C497.695 33.0877 497.615 32.2463 497.456 31.4846C497.314 30.7229 497.075 30.0763 496.738 29.5449C496.402 29.0134 495.976 28.606 495.462 28.3226C494.949 28.0214 494.32 27.8709 493.575 27.8709C492.831 27.8709 492.202 28.0214 491.688 28.3226C491.174 28.606 490.749 29.0134 490.412 29.5449C490.076 30.0763 489.828 30.7229 489.668 31.4846C489.527 32.2463 489.456 33.0877 489.456 34.0089V37.038C489.456 37.9769 489.527 38.8271 489.668 39.5889C489.828 40.3329 490.076 40.9706 490.412 41.502C490.749 42.0334 491.174 42.4497 491.688 42.7509C492.202 43.0343 492.831 43.176 493.575 43.176ZM508.687 35.7094L506.03 38.8449V44.7969H503.797V26.25H506.03V35.922H506.109L508.555 32.8397L514.03 26.25H516.714L510.202 34.062L516.9 44.7969H514.295L508.687 35.7094Z" fill="white"/>
<path d="M394.313 29.0931L395.341 28.6795L395.062 27.986H394.313V29.0931ZM394.127 29.0931V27.986H393.02V29.0931H394.127ZM394.127 44.7969V45.904H395.235V44.7969H394.127ZM392.107 44.7969H391V45.904H392.107V44.7969ZM392.107 26.25V25.1428H391V26.25H392.107ZM395.27 26.25L396.296 25.8328L396.014 25.1428H395.27V26.25ZM401.596 41.7943L400.57 42.2114L400.852 42.9014H401.596V41.7943ZM401.782 41.7943V42.9014H402.889V41.7943H401.782ZM401.782 26.25V25.1428H400.675V26.25H401.782ZM403.802 26.25H404.909V25.1428H403.802V26.25ZM403.802 44.7969V45.904H404.909V44.7969H403.802ZM400.639 44.7969L399.611 45.2105L399.89 45.904H400.639V44.7969ZM394.313 27.986H394.127V30.2003H394.313V27.986ZM393.02 29.0931V44.7969H395.235V29.0931H393.02ZM394.127 43.6897H392.107V45.904H394.127V43.6897ZM393.215 44.7969V26.25H391V44.7969H393.215ZM392.107 27.3571H395.27V25.1428H392.107V27.3571ZM394.245 26.6672L400.57 42.2114L402.621 41.3771L396.296 25.8328L394.245 26.6672ZM401.596 42.9014H401.782V40.6871H401.596V42.9014ZM402.889 41.7943V26.25H400.675V41.7943H402.889ZM401.782 27.3571H403.802V25.1428H401.782V27.3571ZM402.695 26.25V44.7969H404.909V26.25H402.695ZM403.802 43.6897H400.639V45.904H403.802V43.6897ZM401.667 44.3832L395.341 28.6795L393.286 29.5068L399.611 45.2105L401.667 44.3832ZM410.967 44.478L410.44 45.451L410.455 45.4596L410.967 44.478ZM407.778 31.4846L408.863 31.7111V31.7078L407.778 31.4846ZM410.967 26.5954L411.481 27.5772L411.496 27.5682L410.967 26.5954ZM416.814 26.5954L416.287 27.5684L416.303 27.577L416.814 26.5954ZM420.004 31.4846L418.921 31.7078V31.7111L420.004 31.4846ZM416.814 44.478L417.328 45.4598L417.344 45.4507L416.814 44.478ZM415.778 42.7508L416.314 43.7205L416.338 43.7059L415.778 42.7508ZM417.771 39.5889L416.688 39.3621L416.684 39.3816L417.771 39.5889ZM417.771 31.4846L416.684 31.6872L416.688 31.7113L417.771 31.4846ZM415.778 28.3226L415.217 29.278L415.244 29.292L415.778 28.3226ZM412.004 28.3226L412.54 29.2922L412.564 29.2776L412.004 28.3226ZM409.984 31.4846L408.901 31.2576L408.896 31.282L409.984 31.4846ZM409.984 39.5889L408.896 39.7915L408.901 39.8209L409.984 39.5889ZM412.004 42.7508L411.443 43.7063L411.47 43.7203L412.004 42.7508ZM413.891 44.0086C412.894 44.0086 412.103 43.8219 411.481 43.4964L410.455 45.4596C411.461 45.9844 412.619 46.2228 413.891 46.2228V44.0086ZM411.496 43.5053C410.852 43.1545 410.311 42.6554 409.875 41.9867L408.021 43.1961C408.648 44.1571 409.454 44.916 410.44 45.451L411.496 43.5053ZM409.875 41.9867C409.434 41.3116 409.089 40.4464 408.863 39.3623L406.695 39.8154C406.965 41.105 407.397 42.2416 408.021 43.1961L409.875 41.9867ZM408.863 39.3623C408.633 38.266 408.513 36.9893 408.513 35.5234H406.298C406.298 37.1044 406.427 38.5379 406.695 39.8154L408.863 39.3623ZM408.513 35.5234C408.513 34.0764 408.633 32.808 408.863 31.7111L406.695 31.258C406.427 32.5348 406.298 33.959 406.298 35.5234H408.513ZM408.863 31.7078C409.091 30.6046 409.437 29.7326 409.875 29.0601L408.021 27.8507C407.397 28.8079 406.963 29.9554 406.695 31.2614L408.863 31.7078ZM409.875 29.0601C410.309 28.395 410.843 27.9094 411.481 27.5772L410.455 25.6138C409.461 26.132 408.65 26.8862 408.021 27.8507L409.875 29.0601ZM411.496 27.5682C412.117 27.2311 412.901 27.0383 413.891 27.0383V24.824C412.613 24.824 411.448 25.074 410.44 25.6227L411.496 27.5682ZM413.891 27.0383C414.881 27.0383 415.665 27.2314 416.287 27.5684L417.344 25.6227C416.334 25.074 415.169 24.824 413.891 24.824V27.0383ZM416.303 27.577C416.938 27.9092 417.474 28.395 417.908 29.0601L419.762 27.8507C419.133 26.8862 418.32 26.132 417.328 25.6138L416.303 27.577ZM417.908 29.0601C418.347 29.7326 418.693 30.6046 418.921 31.7078L421.089 31.2614C420.821 29.9554 420.387 28.8079 419.762 27.8507L417.908 29.0601ZM418.921 31.7111C419.149 32.808 419.268 34.0764 419.268 35.5234H421.483C421.483 33.959 421.355 32.5348 421.089 31.258L418.921 31.7111ZM419.268 35.5234C419.268 36.9893 419.149 38.266 418.921 39.3623L421.089 39.8154C421.355 38.5379 421.483 37.1044 421.483 35.5234H419.268ZM418.921 39.3623C418.695 40.4464 418.347 41.3116 417.908 41.9867L419.762 43.1961C420.385 42.2416 420.819 41.105 421.089 39.8154L418.921 39.3623ZM417.908 41.9867C417.472 42.6554 416.932 43.1545 416.287 43.5053L417.344 45.4507C418.329 44.9158 419.136 44.1571 419.762 43.1961L417.908 41.9867ZM416.303 43.4964C415.678 43.8219 414.887 44.0086 413.891 44.0086V46.2228C415.162 46.2228 416.32 45.9846 417.328 45.4598L416.303 43.4964ZM413.891 44.2831C414.774 44.2831 415.598 44.1153 416.314 43.7205L415.244 41.7814C414.932 41.9535 414.498 42.0688 413.891 42.0688V44.2831ZM416.338 43.7059C417.014 43.3106 417.565 42.7663 417.99 42.0943L416.119 40.9097C415.871 41.3005 415.572 41.5888 415.217 41.7958L416.338 43.7059ZM417.99 42.0943C418.413 41.4238 418.697 40.6497 418.859 39.7961L416.684 39.3816C416.564 40.016 416.367 40.5173 416.119 40.9097L417.99 42.0943ZM418.856 39.8156C419.034 38.966 419.118 38.038 419.118 37.038H416.903C416.903 37.9157 416.83 38.6883 416.688 39.3621L418.856 39.8156ZM419.118 37.038V34.0088H416.903V37.038H419.118ZM419.118 34.0088C419.118 33.025 419.034 32.1061 418.856 31.2578L416.688 31.7113C416.83 32.3864 416.903 33.1504 416.903 34.0088H419.118ZM418.861 31.282C418.699 30.4128 418.418 29.627 417.99 28.9525L416.119 30.1372C416.365 30.5256 416.562 31.0328 416.684 31.6872L418.861 31.282ZM417.99 28.9525C417.561 28.2754 417.003 27.7331 416.314 27.3531L415.244 29.292C415.583 29.4789 415.875 29.7514 416.119 30.1372L417.99 28.9525ZM416.338 27.3675C415.618 26.9448 414.783 26.7637 413.891 26.7637V28.978C414.487 28.978 414.912 29.0985 415.217 29.278L416.338 27.3675ZM413.891 26.7637C412.998 26.7637 412.165 26.9448 411.443 27.3675L412.564 29.2776C412.872 29.098 413.295 28.978 413.891 28.978V26.7637ZM411.47 27.3531C410.781 27.7331 410.223 28.2754 409.793 28.9525L411.665 30.1372C411.908 29.7514 412.201 29.4791 412.54 29.2922L411.47 27.3531ZM409.793 28.9525C409.37 29.619 409.08 30.3958 408.901 31.2576L411.069 31.7113C411.206 31.0497 411.412 30.5335 411.665 30.1372L409.793 28.9525ZM408.896 31.282C408.739 32.1216 408.664 33.0321 408.664 34.0088H410.878C410.878 33.1433 410.945 32.3709 411.073 31.6872L408.896 31.282ZM408.664 34.0088V37.038H410.878V34.0088H408.664ZM408.664 37.038C408.664 38.0311 408.739 38.9507 408.896 39.7915L411.073 39.3862C410.947 38.7036 410.878 37.9226 410.878 37.038H408.664ZM408.901 39.8209C409.082 40.6668 409.372 41.432 409.793 42.0943L411.665 40.9097C411.41 40.5091 411.204 39.9989 411.067 39.3568L408.901 39.8209ZM409.793 42.0943C410.218 42.7663 410.77 43.3111 411.443 43.7063L412.564 41.7958C412.212 41.5888 411.913 41.3005 411.665 40.9097L409.793 42.0943ZM411.47 43.7203C412.185 44.1151 413.009 44.2831 413.891 44.2831V42.0688C413.286 42.0688 412.852 41.9535 412.54 41.7814L411.47 43.7203ZM430.945 28.1897V27.0826H429.838V28.1897H430.945ZM430.945 44.7969V45.904H432.053V44.7969H430.945ZM428.713 44.7969H427.605V45.904H428.713V44.7969ZM428.713 28.1897H429.82V27.0826H428.713V28.1897ZM422.52 28.1897H421.412V29.2968H422.52V28.1897ZM422.52 26.25V25.1428H421.412V26.25H422.52ZM437.138 26.25H438.246V25.1428H437.138V26.25ZM437.138 28.1897V29.2968H438.246V28.1897H437.138ZM429.838 28.1897V44.7969H432.053V28.1897H429.838ZM430.945 43.6897H428.713V45.904H430.945V43.6897ZM429.82 44.7969V28.1897H427.605V44.7969H429.82ZM428.713 27.0826H422.52V29.2968H428.713V27.0826ZM423.627 28.1897V26.25H421.412V28.1897H423.627ZM422.52 27.3571H437.138V25.1428H422.52V27.3571ZM436.031 26.25V28.1897H438.246V26.25H436.031ZM437.138 27.0826H430.945V29.2968H437.138V27.0826ZM440.184 44.7969H439.076V45.904H440.184V44.7969ZM440.184 26.25V25.1428H439.076V26.25H440.184ZM451.612 26.25H452.72V25.1428H451.612V26.25ZM451.612 28.1897V29.2968H452.72V28.1897H451.612ZM442.416 28.1897V27.0826H441.309V28.1897H442.416ZM442.416 34.434H441.309V35.5411H442.416V34.434ZM451.293 34.434H452.401V33.3268H451.293V34.434ZM451.293 36.3737V37.4808H452.401V36.3737H451.293ZM442.416 36.3737V35.2666H441.309V36.3737H442.416ZM442.416 42.8571H441.309V43.9643H442.416V42.8571ZM451.612 42.8571H452.72V41.75H451.612V42.8571ZM451.612 44.7969V45.904H452.72V44.7969H451.612ZM441.291 44.7969V26.25H439.076V44.7969H441.291ZM440.184 27.3571H451.612V25.1428H440.184V27.3571ZM450.505 26.25V28.1897H452.72V26.25H450.505ZM451.612 27.0826H442.416V29.2968H451.612V27.0826ZM441.309 28.1897V34.434H443.524V28.1897H441.309ZM442.416 35.5411H451.293V33.3268H442.416V35.5411ZM450.186 34.434V36.3737H452.401V34.434H450.186ZM451.293 35.2666H442.416V37.4808H451.293V35.2666ZM441.309 36.3737V42.8571H443.524V36.3737H441.309ZM442.416 43.9643H451.612V41.75H442.416V43.9643ZM450.505 42.8571V44.7969H452.72V42.8571H450.505ZM451.612 43.6897H440.184V45.904H451.612V43.6897ZM456.066 26.25V25.1428H454.959V26.25H456.066ZM466.645 33.6634L465.805 32.9409L465.794 32.9546L466.645 33.6634ZM464.572 35.0186L464.242 33.9619L463.464 34.2046V35.0186H464.572ZM464.572 35.0983H463.464V35.9734L464.317 36.1755L464.572 35.0983ZM467.15 36.5066L466.357 37.2793L466.368 37.2895L467.15 36.5066ZM466.724 43.2557L465.927 42.4876L465.912 42.5035L466.724 43.2557ZM465.13 44.3983L465.577 45.4113L465.59 45.4051L465.13 44.3983ZM456.066 44.7969H454.959V45.904H456.066V44.7969ZM464.917 36.852L464.217 37.7089L464.233 37.7215L464.917 36.852ZM458.299 36.1346V35.0274H457.192V36.1346H458.299ZM458.299 42.8571H457.192V43.9643H458.299V42.8571ZM464.332 33.69L465.008 34.5688L465.026 34.5544L464.332 33.69ZM458.299 28.1897V27.0826H457.192V28.1897H458.299ZM458.299 34.3011H457.192V35.4083H458.299V34.3011ZM456.066 27.3571H462.366V25.1428H456.066V27.3571ZM462.366 27.3571C463.756 27.3571 464.7 27.7305 465.347 28.3505L466.882 26.7535C465.719 25.6375 464.166 25.1428 462.366 25.1428V27.3571ZM465.347 28.3505C465.998 28.976 466.361 29.8294 466.361 31.0328H468.576C468.576 29.3312 468.038 27.864 466.882 26.7535L465.347 28.3505ZM466.361 31.0328C466.361 31.9713 466.133 32.5618 465.805 32.9409L467.484 34.3859C468.257 33.4896 468.576 32.3264 468.576 31.0328H466.361ZM465.794 32.9546C465.409 33.4167 464.904 33.7549 464.242 33.9619L464.902 36.0752C465.94 35.7508 466.817 35.1855 467.495 34.3722L465.794 32.9546ZM463.464 35.0186V35.0983H465.679V35.0186H463.464ZM464.317 36.1755C465.181 36.3808 465.847 36.7557 466.357 37.2793L467.943 35.734C467.108 34.876 466.053 34.3118 464.828 34.021L464.317 36.1755ZM466.368 37.2895C466.766 37.6894 467.052 38.3484 467.052 39.456H469.267C469.267 37.9773 468.879 36.67 467.934 35.7236L466.368 37.2895ZM467.052 39.456C467.052 40.0744 466.95 40.6406 466.753 41.1634L468.824 41.9468C469.123 41.1588 469.267 40.3255 469.267 39.456H467.052ZM466.753 41.1634C466.554 41.6864 466.279 42.1231 465.927 42.4876L467.522 44.0236C468.093 43.4315 468.525 42.7347 468.824 41.9468L466.753 41.1634ZM465.912 42.5035C465.573 42.8695 465.163 43.1658 464.669 43.3914L465.59 45.4051C466.337 45.0639 466.99 44.5984 467.537 44.0079L465.912 42.5035ZM464.682 43.3852C464.233 43.5843 463.73 43.6897 463.163 43.6897V45.904C464.013 45.904 464.824 45.7437 465.577 45.4113L464.682 43.3852ZM463.163 43.6897H456.066V45.904H463.163V43.6897ZM457.174 44.7969V26.25H454.959V44.7969H457.174ZM462.498 43.9643C463.681 43.9643 464.76 43.6994 465.604 43.0358L464.233 41.2967C463.905 41.554 463.371 41.75 462.498 41.75V43.9643ZM465.604 43.0358C466.527 42.3078 466.902 41.231 466.902 40.0406H464.687C464.687 40.7633 464.476 41.1036 464.233 41.2967L465.604 43.0358ZM466.902 40.0406V38.9511H464.687V40.0406H466.902ZM466.902 38.9511C466.902 37.7703 466.523 36.7065 465.604 35.9824L464.233 37.7215C464.483 37.9186 464.687 38.2543 464.687 38.9511H466.902ZM465.619 35.9951C464.775 35.3051 463.69 35.0274 462.498 35.0274V37.2417C463.362 37.2417 463.889 37.4423 464.217 37.7089L465.619 35.9951ZM462.498 35.0274H458.299V37.2417H462.498V35.0274ZM457.192 36.1346V42.8571H459.406V36.1346H457.192ZM458.299 43.9643H462.498V41.75H458.299V43.9643ZM462.126 35.4083C463.214 35.4083 464.219 35.1738 465.008 34.5688L463.659 32.8114C463.384 33.0213 462.917 33.194 462.126 33.194V35.4083ZM465.026 34.5544C465.883 33.8678 466.237 32.8716 466.237 31.7769H464.022C464.022 32.3827 463.845 32.6619 463.641 32.8255L465.026 34.5544ZM466.237 31.7769V30.7406H464.022V31.7769H466.237ZM466.237 30.7406C466.237 29.6458 465.883 28.6496 465.026 27.963L463.641 29.6919C463.845 29.8555 464.022 30.1347 464.022 30.7406H466.237ZM465.026 27.963C464.235 27.3306 463.223 27.0826 462.126 27.0826V29.2968C462.908 29.2968 463.369 29.474 463.641 29.6919L465.026 27.963ZM462.126 27.0826H458.299V29.2968H462.126V27.0826ZM457.192 28.1897V34.3011H459.406V28.1897H457.192ZM458.299 35.4083H462.126V33.194H458.299V35.4083ZM474.716 44.478L474.186 45.451L474.202 45.4596L474.716 44.478ZM471.526 31.4846L472.609 31.7111V31.7078L471.526 31.4846ZM474.716 26.5954L475.227 27.5772L475.243 27.5682L474.716 26.5954ZM480.563 26.5954L480.034 27.5684L480.049 27.577L480.563 26.5954ZM483.752 31.4846L482.667 31.7078V31.7111L483.752 31.4846ZM480.563 44.478L481.075 45.4598L481.09 45.4507L480.563 44.478ZM479.526 42.7508L480.06 43.7205L480.085 43.7059L479.526 42.7508ZM481.52 39.5889L480.434 39.3621L480.43 39.3816L481.52 39.5889ZM481.52 31.4846L480.43 31.6872L480.434 31.7113L481.52 31.4846ZM479.526 28.3226L478.966 29.278L478.99 29.292L479.526 28.3226ZM475.752 28.3226L476.286 29.2922L476.31 29.2776L475.752 28.3226ZM473.732 31.4846L472.647 31.2576L472.643 31.282L473.732 31.4846ZM473.732 39.5889L472.643 39.7915L472.649 39.8209L473.732 39.5889ZM475.752 42.7508L475.192 43.7063L475.216 43.7203L475.752 42.7508ZM477.639 44.0086C476.643 44.0086 475.852 43.8219 475.227 43.4964L474.202 45.4596C475.207 45.9844 476.368 46.2228 477.639 46.2228V44.0086ZM475.243 43.5053C474.598 43.1545 474.058 42.6554 473.622 41.9867L471.768 43.1961C472.394 44.1571 473.201 44.916 474.186 45.451L475.243 43.5053ZM473.622 41.9867C473.183 41.3116 472.835 40.4464 472.609 39.3623L470.441 39.8154C470.711 41.105 471.145 42.2416 471.768 43.1961L473.622 41.9867ZM472.609 39.3623C472.381 38.266 472.262 36.9893 472.262 35.5234H470.047C470.047 37.1044 470.175 38.5379 470.441 39.8154L472.609 39.3623ZM472.262 35.5234C472.262 34.0764 472.379 32.808 472.609 31.7111L470.441 31.258C470.175 32.5348 470.047 33.959 470.047 35.5234H472.262ZM472.609 31.7078C472.837 30.6046 473.183 29.7326 473.622 29.0601L471.768 27.8507C471.143 28.8079 470.709 29.9554 470.441 31.2614L472.609 31.7078ZM473.622 29.0601C474.056 28.395 474.589 27.9094 475.227 27.5772L474.202 25.6138C473.21 26.132 472.397 26.8862 471.768 27.8507L473.622 29.0601ZM475.243 27.5682C475.863 27.2311 476.649 27.0383 477.639 27.0383V24.824C476.361 24.824 475.196 25.074 474.186 25.6227L475.243 27.5682ZM477.639 27.0383C478.629 27.0383 479.413 27.2314 480.034 27.5684L481.09 25.6227C480.08 25.074 478.917 24.824 477.639 24.824V27.0383ZM480.049 27.577C480.687 27.9092 481.221 28.395 481.655 29.0601L483.509 27.8507C482.88 26.8862 482.067 26.132 481.075 25.6138L480.049 27.577ZM481.655 29.0601C482.093 29.7326 482.439 30.6046 482.667 31.7078L484.835 31.2614C484.567 29.9554 484.133 28.8079 483.509 27.8507L481.655 29.0601ZM482.667 31.7111C482.897 32.808 483.017 34.0764 483.017 35.5234H485.232C485.232 33.959 485.101 32.5348 484.835 31.258L482.667 31.7111ZM483.017 35.5234C483.017 36.9893 482.897 38.266 482.667 39.3623L484.835 39.8154C485.103 38.5379 485.232 37.1044 485.232 35.5234H483.017ZM482.667 39.3623C482.441 40.4464 482.096 41.3116 481.655 41.9867L483.509 43.1961C484.133 42.2416 484.565 41.105 484.835 39.8154L482.667 39.3623ZM481.655 41.9867C481.219 42.6554 480.678 43.1545 480.034 43.5053L481.09 45.4507C482.076 44.9158 482.882 44.1571 483.509 43.1961L481.655 41.9867ZM480.049 43.4964C479.424 43.8219 478.636 44.0086 477.639 44.0086V46.2228C478.911 46.2228 480.069 45.9846 481.075 45.4598L480.049 43.4964ZM477.639 44.2831C478.521 44.2831 479.345 44.1153 480.06 43.7205L478.99 41.7814C478.678 41.9535 478.244 42.0688 477.639 42.0688V44.2831ZM480.085 43.7059C480.76 43.3106 481.312 42.7663 481.737 42.0943L479.865 40.9097C479.617 41.3005 479.318 41.5888 478.966 41.7958L480.085 43.7059ZM481.737 42.0943C482.162 41.4238 482.443 40.6497 482.607 39.7961L480.43 39.3816C480.31 40.016 480.113 40.5173 479.865 40.9097L481.737 42.0943ZM482.603 39.8156C482.78 38.966 482.866 38.038 482.866 37.038H480.652C480.652 37.9157 480.576 38.6883 480.434 39.3621L482.603 39.8156ZM482.866 37.038V34.0088H480.652V37.038H482.866ZM482.866 34.0088C482.866 33.025 482.78 32.1061 482.603 31.2578L480.434 31.7113C480.576 32.3864 480.652 33.1504 480.652 34.0088H482.866ZM482.607 31.282C482.446 30.4128 482.164 29.627 481.737 28.9525L479.865 30.1372C480.111 30.5256 480.308 31.0328 480.43 31.6872L482.607 31.282ZM481.737 28.9525C481.307 28.2754 480.749 27.7331 480.06 27.3531L478.99 29.292C479.329 29.4789 479.622 29.7514 479.865 30.1372L481.737 28.9525ZM480.085 27.3675C479.365 26.9448 478.532 26.7637 477.639 26.7637V28.978C478.235 28.978 478.658 29.0985 478.966 29.278L480.085 27.3675ZM477.639 26.7637C476.747 26.7637 475.912 26.9448 475.192 27.3675L476.31 29.2776C476.618 29.098 477.043 28.978 477.639 28.978V26.7637ZM475.216 27.3531C474.527 27.7331 473.969 28.2754 473.54 28.9525L475.411 30.1372C475.655 29.7514 475.947 29.4791 476.286 29.2922L475.216 27.3531ZM473.54 28.9525C473.119 29.619 472.829 30.3958 472.647 31.2576L474.815 31.7113C474.953 31.0497 475.161 30.5335 475.411 30.1372L473.54 28.9525ZM472.643 31.282C472.485 32.1216 472.412 33.0321 472.412 34.0088H474.627C474.627 33.1433 474.694 32.3709 474.82 31.6872L472.643 31.282ZM472.412 34.0088V37.038H474.627V34.0088H472.412ZM472.412 37.038C472.412 38.0311 472.485 38.9507 472.643 39.7915L474.82 39.3862C474.694 38.7036 474.627 37.9226 474.627 37.038H472.412ZM472.649 39.8209C472.831 40.6668 473.121 41.432 473.54 42.0943L475.411 40.9097C475.156 40.5091 474.953 39.9989 474.813 39.3568L472.649 39.8209ZM473.54 42.0943C473.965 42.7663 474.516 43.3111 475.192 43.7063L476.31 41.7958C475.958 41.5888 475.659 41.3005 475.411 40.9097L473.54 42.0943ZM475.216 43.7203C475.932 44.1151 476.756 44.2831 477.639 44.2831V42.0688C477.032 42.0688 476.598 41.9535 476.286 41.7814L475.216 43.7203ZM490.652 44.478L490.122 45.451L490.14 45.4596L490.652 44.478ZM487.462 31.4846L488.545 31.7111L488.548 31.7078L487.462 31.4846ZM490.652 26.5954L491.163 27.5772L491.181 27.5682L490.652 26.5954ZM496.499 26.5954L495.97 27.5684L495.987 27.577L496.499 26.5954ZM499.688 31.4846L498.603 31.7078V31.7111L499.688 31.4846ZM496.499 44.478L497.011 45.4598L497.028 45.4507L496.499 44.478ZM495.462 42.7508L495.996 43.7205L496.023 43.7059L495.462 42.7508ZM497.456 39.5889L496.37 39.3621L496.368 39.3816L497.456 39.5889ZM497.456 31.4846L496.366 31.6872L496.37 31.7113L497.456 31.4846ZM495.462 28.3226L494.902 29.278L494.926 29.292L495.462 28.3226ZM491.688 28.3226L492.222 29.2922L492.249 29.2776L491.688 28.3226ZM489.668 31.4846L488.583 31.2576L488.579 31.282L489.668 31.4846ZM489.668 39.5889L488.579 39.7915L488.585 39.8209L489.668 39.5889ZM491.688 42.7508L491.128 43.7063L491.152 43.7203L491.688 42.7508ZM493.575 44.0086C492.579 44.0086 491.788 43.8219 491.163 43.4964L490.14 45.4596C491.146 45.9844 492.304 46.2228 493.575 46.2228V44.0086ZM491.181 43.5053C490.534 43.1545 489.996 42.6554 489.56 41.9867L487.704 43.1961C488.33 44.1571 489.139 44.916 490.122 45.451L491.181 43.5053ZM489.56 41.9867C489.119 41.3116 488.773 40.4464 488.545 39.3623L486.377 39.8154C486.647 41.105 487.081 42.2416 487.704 43.1961L489.56 41.9867ZM488.545 39.3623C488.317 38.266 488.198 36.9893 488.198 35.5234H485.983C485.983 37.1044 486.111 38.5379 486.377 39.8154L488.545 39.3623ZM488.198 35.5234C488.198 34.0764 488.317 32.808 488.545 31.7111L486.377 31.258C486.111 32.5348 485.983 33.959 485.983 35.5234H488.198ZM488.548 31.7078C488.773 30.6046 489.121 29.7326 489.56 29.0601L487.704 27.8507C487.079 28.8079 486.647 29.9554 486.377 31.2614L488.548 31.7078ZM489.56 29.0601C489.994 28.395 490.528 27.9094 491.163 27.5772L490.14 25.6138C489.146 26.132 488.333 26.8862 487.704 27.8507L489.56 29.0601ZM491.181 27.5682C491.801 27.2311 492.585 27.0383 493.575 27.0383V24.824C492.297 24.824 491.132 25.074 490.122 25.6227L491.181 27.5682ZM493.575 27.0383C494.565 27.0383 495.349 27.2314 495.97 27.5684L497.028 25.6227C496.018 25.074 494.853 24.824 493.575 24.824V27.0383ZM495.987 27.577C496.623 27.9092 497.157 28.395 497.591 29.0601L499.447 27.8507C498.818 26.8862 498.005 26.132 497.011 25.6138L495.987 27.577ZM497.591 29.0601C498.029 29.7326 498.377 30.6046 498.603 31.7078L500.774 31.2614C500.503 29.9554 500.072 28.8079 499.447 27.8507L497.591 29.0601ZM498.603 31.7111C498.833 32.808 498.953 34.0764 498.953 35.5234H501.168C501.168 33.959 501.039 32.5348 500.771 31.258L498.603 31.7111ZM498.953 35.5234C498.953 36.9893 498.833 38.266 498.603 39.3623L500.771 39.8154C501.039 38.5379 501.168 37.1044 501.168 35.5234H498.953ZM498.603 39.3623C498.377 40.4464 498.032 41.3116 497.591 41.9867L499.447 43.1961C500.069 42.2416 500.503 41.105 500.771 39.8154L498.603 39.3623ZM497.591 41.9867C497.155 42.6554 496.616 43.1545 495.97 43.5053L497.028 45.4507C498.012 44.9158 498.82 44.1571 499.447 43.1961L497.591 41.9867ZM495.987 43.4964C495.363 43.8219 494.572 44.0086 493.575 44.0086V46.2228C494.847 46.2228 496.005 45.9846 497.011 45.4598L495.987 43.4964ZM493.575 44.2831C494.457 44.2831 495.281 44.1153 495.996 43.7205L494.926 41.7814C494.616 41.9535 494.182 42.0688 493.575 42.0688V44.2831ZM496.023 43.7059C496.696 43.3106 497.248 42.7663 497.673 42.0943L495.801 40.9097C495.555 41.3005 495.254 41.5888 494.902 41.7958L496.023 43.7059ZM497.673 42.0943C498.098 41.4238 498.382 40.6497 498.543 39.7961L496.368 39.3816C496.246 40.016 496.052 40.5173 495.801 40.9097L497.673 42.0943ZM498.539 39.8156C498.718 38.966 498.802 38.038 498.802 37.038H496.588C496.588 37.9157 496.512 38.6883 496.37 39.3621L498.539 39.8156ZM498.802 37.038V34.0088H496.588V37.038H498.802ZM498.802 34.0088C498.802 33.025 498.716 32.1061 498.539 31.2578L496.37 31.7113C496.512 32.3864 496.588 33.1504 496.588 34.0088H498.802ZM498.543 31.282C498.382 30.4128 498.1 29.627 497.673 28.9525L495.801 30.1372C496.049 30.5256 496.244 31.0328 496.366 31.6872L498.543 31.282ZM497.673 28.9525C497.245 28.2754 496.685 27.7331 495.996 27.3531L494.926 29.292C495.265 29.4789 495.558 29.7514 495.801 30.1372L497.673 28.9525ZM496.023 27.3675C495.301 26.9448 494.468 26.7637 493.575 26.7637V28.978C494.171 28.978 494.596 29.0985 494.902 29.278L496.023 27.3675ZM493.575 26.7637C492.683 26.7637 491.85 26.9448 491.128 27.3675L492.249 29.2776C492.554 29.098 492.98 28.978 493.575 28.978V26.7637ZM491.152 27.3531C490.463 27.7331 489.905 28.2754 489.476 28.9525L491.347 30.1372C491.593 29.7514 491.883 29.4791 492.222 29.2922L491.152 27.3531ZM489.476 28.9525C489.055 29.619 488.765 30.3958 488.583 31.2576L490.751 31.7113C490.891 31.0497 491.097 30.5335 491.347 30.1372L489.476 28.9525ZM488.579 31.282C488.424 32.1216 488.348 33.0321 488.348 34.0088H490.563C490.563 33.1433 490.63 32.3709 490.756 31.6872L488.579 31.282ZM488.348 34.0088V37.038H490.563V34.0088H488.348ZM488.348 37.038C488.348 38.0311 488.424 38.9507 488.579 39.7915L490.756 39.3862C490.63 38.7036 490.563 37.9226 490.563 37.038H488.348ZM488.585 39.8209C488.767 40.6668 489.057 41.432 489.476 42.0943L491.347 40.9097C491.095 40.5091 490.889 39.9989 490.751 39.3568L488.585 39.8209ZM489.476 42.0943C489.903 42.7663 490.452 43.3111 491.128 43.7063L492.249 41.7958C491.894 41.5888 491.595 41.3005 491.347 40.9097L489.476 42.0943ZM491.152 43.7203C491.87 44.1151 492.694 44.2831 493.575 44.2831V42.0688C492.968 42.0688 492.534 41.9535 492.222 41.7814L491.152 43.7203ZM508.687 35.7094L509.631 35.1282L508.829 33.8302L507.844 34.9935L508.687 35.7094ZM506.03 38.8448L505.186 38.129L504.922 38.4387V38.8448H506.03ZM506.03 44.7969V45.904H507.137V44.7969H506.03ZM503.797 44.7969H502.69V45.904H503.797V44.7969ZM503.797 26.25V25.1428H502.69V26.25H503.797ZM506.03 26.25H507.137V25.1428H506.03V26.25ZM506.03 35.922H504.922V37.0291H506.03V35.922ZM506.109 35.922V37.0291H506.645L506.978 36.61L506.109 35.922ZM508.555 32.8397L507.702 32.132L507.686 32.1517L508.555 32.8397ZM514.03 26.25V25.1428H513.511L513.179 25.5425L514.03 26.25ZM516.714 26.25L517.565 26.9588L519.08 25.1428H516.714V26.25ZM510.202 34.062L509.352 33.3532L508.84 33.9685L509.263 34.6479L510.202 34.062ZM516.9 44.7969V45.904H518.896L517.839 44.2109L516.9 44.7969ZM514.295 44.7969L513.354 45.3781L513.678 45.904H514.295V44.7969ZM507.844 34.9935L505.186 38.129L506.876 39.5607L509.534 36.4253L507.844 34.9935ZM504.922 38.8448V44.7969H507.137V38.8448H504.922ZM506.03 43.6897H503.797V45.904H506.03V43.6897ZM504.904 44.7969V26.25H502.69V44.7969H504.904ZM503.797 27.3571H506.03V25.1428H503.797V27.3571ZM504.922 26.25V35.922H507.137V26.25H504.922ZM506.03 37.0291H506.109V34.8148H506.03V37.0291ZM506.978 36.61L509.423 33.5277L507.686 32.1517L505.241 35.234L506.978 36.61ZM509.407 33.5472L514.882 26.9575L513.179 25.5425L507.704 32.1322L509.407 33.5472ZM514.03 27.3571H516.714V25.1428H514.03V27.3571ZM515.864 25.5412L509.352 33.3532L511.053 34.7708L517.565 26.9588L515.864 25.5412ZM509.263 34.6479L515.961 45.3828L517.839 44.2109L511.142 33.4761L509.263 34.6479ZM516.9 43.6897H514.295V45.904H516.9V43.6897ZM515.239 44.2156L509.631 35.1282L507.746 36.2907L513.354 45.3781L515.239 44.2156Z" fill="white"/>
</g>
<defs>
<clipPath id="clip0_1_16">
<rect width="530" height="50" fill="white"/>
</clipPath>
</defs>
</svg>
