<svg width="183" height="142" viewBox="0 0 183 142" fill="none" xmlns="http://www.w3.org/2000/svg">
<g clip-path="url(#clip0_2_35)">
<path d="M14.8344 38C10.1535 38 6.51094 36.4211 3.90656 33.2632C1.30219 30.0702 0 25.386 0 19.2105C0 13.0351 1.30219 8.29825 3.90656 5C6.51094 1.66667 10.1535 0 14.8344 0C17.9315 0 20.5182 0.701755 22.5947 2.10526C24.7064 3.50877 26.3429 5.49123 27.5043 8.05263L23.9145 10.2105C23.1754 8.31579 22.0492 6.80702 20.5358 5.68421C19.0225 4.52632 17.122 3.94737 14.8344 3.94737C13.2506 3.94737 11.8253 4.24561 10.5583 4.84211C9.32648 5.4386 8.27065 6.29825 7.39079 7.42105C6.54613 8.50877 5.89504 9.82456 5.43751 11.3684C4.97999 12.8772 4.75122 14.5789 4.75122 16.4737V21.9474C4.75122 25.7368 5.63108 28.7018 7.39079 30.8421C9.1505 32.9825 11.6317 34.0526 14.8344 34.0526C17.1924 34.0526 19.1633 33.4561 20.747 32.2632C22.3308 31.0351 23.4922 29.4211 24.2312 27.4211L27.7683 29.6316C26.6069 32.2281 24.9351 34.2807 22.7531 35.7895C20.571 37.2632 17.9315 38 14.8344 38ZM42.4654 38C40.0722 38 37.9077 37.5965 35.972 36.7895C34.0716 35.9474 32.435 34.7368 31.0624 33.1579C29.7251 31.5439 28.6868 29.5614 27.9478 27.2105C27.2087 24.8246 26.8391 22.0877 26.8391 19C26.8391 15.9123 27.2087 13.193 27.9478 10.8421C28.6868 8.49123 29.7251 6.50877 31.0624 4.89474C32.435 3.2807 34.0716 2.07018 35.972 1.26316C37.9077 0.421053 40.0722 0 42.4654 0C44.8234 0 46.9702 0.421053 48.9059 1.26316C50.8416 2.07018 52.4781 3.2807 53.8155 4.89474C55.1881 6.50877 56.2439 8.49123 56.983 10.8421C57.7221 13.193 58.0916 15.9123 58.0916 19C58.0916 22.0877 57.7221 24.8246 56.983 27.2105C56.2439 29.5614 55.1881 31.5439 53.8155 33.1579C52.4781 34.7368 50.8416 35.9474 48.9059 36.7895C46.9702 37.5965 44.8234 38 42.4654 38ZM42.4654 34.0526C44.0491 34.0526 45.5097 33.7719 46.8471 33.2105C48.1844 32.6491 49.3283 31.8421 50.2785 30.7895C51.2639 29.7368 52.0206 28.4737 52.5485 27C53.0765 25.5263 53.3404 23.8772 53.3404 22.0526V15.9474C53.3404 14.1228 53.0765 12.4737 52.5485 11C52.0206 9.52632 51.2639 8.26316 50.2785 7.21053C49.3283 6.1579 48.1844 5.35088 46.8471 4.78947C45.5097 4.22807 44.0491 3.94737 42.4654 3.94737C40.8816 3.94737 39.4211 4.22807 38.0837 4.78947C36.7463 5.35088 35.5849 6.1579 34.5995 7.21053C33.6492 8.26316 32.9101 9.52632 32.3822 11C31.8543 12.4737 31.5904 14.1228 31.5904 15.9474V22.0526C31.5904 23.8772 31.8543 25.5263 32.3822 27C32.9101 28.4737 33.6492 29.7368 34.5995 30.7895C35.5849 31.8421 36.7463 32.6491 38.0837 33.2105C39.4211 33.7719 40.8816 34.0526 42.4654 34.0526ZM69.7062 14.9474L65.2717 6.78947H65.1133V37.3684H60.7844V0.631579H65.9052L79.367 23.0526L83.8015 31.2105H83.9598V0.631579H88.2887V37.3684H83.168L69.7062 14.9474ZM101.752 14.9474L97.3176 6.78947H97.1592V37.3684H92.8303V0.631579H97.9511L111.413 23.0526L115.847 31.2105H116.006V0.631579H120.335V37.3684H115.214L101.752 14.9474ZM138.655 38C136.262 38 134.097 37.5965 132.162 36.7895C130.261 35.9474 128.625 34.7368 127.252 33.1579C125.915 31.5439 124.876 29.5614 124.137 27.2105C123.398 24.8246 123.029 22.0877 123.029 19C123.029 15.9123 123.398 13.193 124.137 10.8421C124.876 8.49123 125.915 6.50877 127.252 4.89474C128.625 3.2807 130.261 2.07018 132.162 1.26316C134.097 0.421053 136.262 0 138.655 0C141.013 0 143.16 0.421053 145.096 1.26316C147.031 2.07018 148.668 3.2807 150.005 4.89474C151.378 6.50877 152.434 8.49123 153.173 10.8421C153.912 13.193 154.281 15.9123 154.281 19C154.281 22.0877 153.912 24.8246 153.173 27.2105C152.434 29.5614 151.378 31.5439 150.005 33.1579C148.668 34.7368 147.031 35.9474 145.096 36.7895C143.16 37.5965 141.013 38 138.655 38ZM138.655 34.0526C140.239 34.0526 141.699 33.7719 143.037 33.2105C144.374 32.6491 145.518 31.8421 146.468 30.7895C147.454 29.7368 148.21 28.4737 148.738 27C149.266 25.5263 149.53 23.8772 149.53 22.0526V15.9474C149.53 14.1228 149.266 12.4737 148.738 11C148.21 9.52632 147.454 8.26316 146.468 7.21053C145.518 6.1579 144.374 5.35088 143.037 4.78947C141.699 4.22807 140.239 3.94737 138.655 3.94737C137.071 3.94737 135.611 4.22807 134.273 4.78947C132.936 5.35088 131.775 6.1579 130.789 7.21053C129.839 8.26316 129.1 9.52632 128.572 11C128.044 12.4737 127.78 14.1228 127.78 15.9474V22.0526C127.78 23.8772 128.044 25.5263 128.572 27C129.1 28.4737 129.839 29.7368 130.789 30.7895C131.775 31.8421 132.936 32.6491 134.273 33.2105C135.611 33.7719 137.071 34.0526 138.655 34.0526ZM161.408 37.3684H156.974V0.631579H171.65C174.888 0.631579 177.404 1.52632 179.199 3.31579C181.029 5.10526 181.944 7.68421 181.944 11.0526C181.944 13.7544 181.311 15.9825 180.044 17.7368C178.812 19.4561 176.982 20.5965 174.553 21.1579L183 37.3684H177.985L170.013 21.5789H161.408V37.3684ZM171.65 17.7895C173.41 17.7895 174.765 17.3333 175.715 16.4211C176.7 15.5088 177.193 14.2105 177.193 12.5263V9.78947C177.193 8.10526 176.7 6.80702 175.715 5.89474C174.765 4.98246 173.41 4.52632 171.65 4.52632H161.408V17.7895H171.65Z" fill="black"/>
<path d="M20.4571 41V68.6704C20.4571 70.2404 20.1975 71.6676 19.6783 72.9521C19.1937 74.2366 18.4841 75.3249 17.5495 76.2169C16.6495 77.1089 15.5592 77.8047 14.2784 78.3042C12.9977 78.7681 11.5958 79 10.0728 79C7.26903 79 5.00178 78.2329 3.27106 76.6986C1.57495 75.1286 0.484601 73.0592 0 70.4901L3.94604 69.5268C4.29218 71.1324 4.94986 72.4526 5.91907 73.4873C6.88827 74.4864 8.30747 74.9859 10.1766 74.9859C12.0458 74.9859 13.4996 74.3972 14.538 73.2197C15.5765 72.0423 16.0957 70.2582 16.0957 67.8676V44.9606H3.63451V41H20.4571ZM47.0369 78.3577L43.4023 67.3324H28.7604L25.1251 78.3577H20.7117L33.3815 41H38.9371L51.6059 78.3577H47.0369ZM36.1852 45.1746H35.9256L29.7989 63.3718H42.312L36.1852 45.1746ZM56.7786 78.3577H52.4172V41H66.8514C70.0359 41 72.5109 41.9099 74.2762 43.7296C76.0761 45.5493 76.9761 48.1718 76.9761 51.5972C76.9761 54.3446 76.3531 56.6103 75.107 58.3944C73.8954 60.1427 72.0955 61.3023 69.7071 61.8732L78.0146 78.3577H73.082L65.2418 62.3014H56.7786V78.3577ZM66.8514 58.4479C68.5821 58.4479 69.9148 57.984 70.8494 57.0563C71.8186 56.1286 72.3032 54.8084 72.3032 53.0958V50.3127C72.3032 48.6 71.8186 47.2798 70.8494 46.3521C69.9148 45.4244 68.5821 44.9606 66.8514 44.9606H56.7786V58.4479H66.8514ZM84.7968 78.3577H80.4354V41H94.8696C98.0541 41 100.529 41.9099 102.294 43.7296C104.094 45.5493 104.994 48.1718 104.994 51.5972C104.994 54.3446 104.371 56.6103 103.125 58.3944C101.914 60.1427 100.114 61.3023 97.7253 61.8732L106.033 78.3577H101.1L93.26 62.3014H84.7968V78.3577ZM94.8696 58.4479C96.6003 58.4479 97.933 57.984 98.8676 57.0563C99.8368 56.1286 100.321 54.8084 100.321 53.0958V50.3127C100.321 48.6 99.8368 47.2798 98.8676 46.3521C97.933 45.4244 96.6003 44.9606 94.8696 44.9606H84.7968V58.4479H94.8696ZM108.456 78.3577V41H130.574V44.9606H112.817V57.4845H129.536V61.4451H112.817V74.3972H130.574V78.3577H108.456ZM145.735 44.9606V78.3577H141.374V44.9606H129.847V41H157.262V44.9606H145.735ZM171.473 44.9606V78.3577H167.112V44.9606H155.585V41H183V44.9606H171.473Z" fill="black"/>
<path d="M183 82H0V142H183V82Z" fill="#131313"/>
<path d="M22.2581 109.328V88.2578H24.7945V107.125H34.789V109.328H22.2581ZM51.2628 109.328L49.4814 103.321H42.0836L40.3021 109.328H37.6751L44.1368 88.2578H47.4885L53.9502 109.328H51.2628ZM45.9184 90.9444H45.6466L42.6875 101.117H48.8775L45.9184 90.9444ZM57.5032 88.2578H64.6594C66.4711 88.2578 67.8902 88.7509 68.9169 89.737C69.9435 90.7231 70.4568 92.0412 70.4568 93.6915C70.4568 94.9593 70.1448 95.9555 69.5208 96.68C68.9169 97.4044 68.1318 97.9176 67.1655 98.2195V98.31C68.3532 98.5918 69.3295 99.1251 70.0945 99.91C70.8594 100.675 71.2419 101.792 71.2419 103.261C71.2419 104.106 71.1009 104.901 70.8191 105.645C70.5373 106.39 70.1347 107.034 69.6113 107.577C69.1081 108.121 68.5042 108.553 67.7996 108.875C67.1152 109.177 66.3704 109.328 65.5652 109.328H57.5032V88.2578ZM64.8103 107.125C65.9779 107.125 66.8938 106.863 67.5581 106.34C68.2223 105.817 68.5545 105.012 68.5545 103.925V102.687C68.5545 101.621 68.2223 100.826 67.5581 100.302C66.8938 99.759 65.9779 99.4873 64.8103 99.4873H60.0395V107.125H64.8103ZM64.3876 97.4044C65.4545 97.4044 66.2899 97.173 66.8938 96.7101C67.4977 96.2272 67.7996 95.5027 67.7996 94.5367V93.3594C67.7996 92.3934 67.4977 91.6689 66.8938 91.1859C66.2899 90.7029 65.4545 90.4614 64.3876 90.4614H60.0395V97.4044H64.3876Z" fill="white"/>
<path d="M22.2581 109.328H21V110.586H22.2581V109.328ZM22.2581 88.2578V87H21V88.2578H22.2581ZM24.7945 88.2578H26.0526V87H24.7945V88.2578ZM24.7945 107.125H23.5364V108.382H24.7945V107.125ZM34.789 107.125H36.0471V105.867H34.789V107.125ZM34.789 109.328V110.586H36.0471V109.328H34.789ZM23.5162 109.328V88.2578H21V109.328H23.5162ZM22.2581 89.5156H24.7945V87H22.2581V89.5156ZM23.5364 88.2578V107.125H26.0526V88.2578H23.5364ZM24.7945 108.382H34.789V105.867H24.7945V108.382ZM33.5309 107.125V109.328H36.0471V107.125H33.5309ZM34.789 108.07H22.2581V110.586H34.789V108.07ZM51.2629 109.328L50.0576 109.686L50.3243 110.586H51.2629V109.328ZM49.4814 103.321L50.6892 102.964L50.4225 102.063H49.4814V103.321ZM42.0836 103.321V102.063H41.1451L40.8783 102.964L42.0836 103.321ZM40.3021 109.328V110.586H41.2432L41.5099 109.686L40.3021 109.328ZM37.6752 109.328L36.4724 108.959L35.9742 110.586H37.6752V109.328ZM44.1369 88.2578V87H43.2084L42.9341 87.8891L44.1369 88.2578ZM47.4885 88.2578L48.6913 87.8891L48.4195 87H47.4885V88.2578ZM53.9503 109.328V110.586H55.6538L55.153 108.959L53.9503 109.328ZM45.9184 90.9444L47.1262 90.5932L46.8645 89.6866H45.9184V90.9444ZM45.6466 90.9444V89.6866H44.703L44.4388 90.5932L45.6466 90.9444ZM42.6875 101.117L41.4797 100.766L41.0117 102.375H42.6875V101.117ZM48.8775 101.117V102.375H50.5533L50.0853 100.766L48.8775 101.117ZM52.4707 108.971L50.6892 102.964L48.2761 103.679L50.0576 109.686L52.4707 108.971ZM49.4814 102.063H42.0836V104.579H49.4814V102.063ZM40.8783 102.964L39.0969 108.971L41.5099 109.686L43.2914 103.679L40.8783 102.964ZM40.3021 108.07H37.6752V110.586H40.3021V108.07ZM38.8779 109.697L45.3397 88.6265L42.9341 87.8891L36.4724 108.959L38.8779 109.697ZM44.1369 89.5156H47.4885V87H44.1369V89.5156ZM46.2858 88.6265L52.7475 109.697L55.153 108.959L48.6913 87.8891L46.2858 88.6265ZM53.9503 108.07H51.2629V110.586H53.9503V108.07ZM45.9184 89.6866H45.6466V92.2022H45.9184V89.6866ZM44.4388 90.5932L41.4797 100.766L43.8953 101.469L46.8544 91.2956L44.4388 90.5932ZM42.6875 102.375H48.8775V99.8596H42.6875V102.375ZM50.0853 100.766L47.1262 90.5932L44.7106 91.2956L47.6697 101.469L50.0853 100.766ZM57.5032 88.2578V87H56.2451V88.2578H57.5032ZM69.5208 96.6799L68.5671 95.8591L68.5546 95.8747L69.5208 96.6799ZM67.1656 98.2195L66.7881 97.019L65.9075 97.2947V98.2195H67.1656ZM67.1656 98.31H65.9075V99.3042L66.8737 99.5339L67.1656 98.31ZM70.0945 99.9099L69.1911 100.788L69.2037 100.799L70.0945 99.9099ZM69.6114 107.577L68.703 106.705L68.6879 106.723L69.6114 107.577ZM67.7997 108.875L68.3054 110.026L68.323 110.019L67.7997 108.875ZM57.5032 109.328H56.2451V110.586H57.5032V109.328ZM67.5581 100.302L66.7605 101.276L66.7781 101.29L67.5581 100.302ZM60.0396 99.4873V98.2295H58.7814V99.4873H60.0396ZM60.0396 107.125H58.7814V108.382H60.0396V107.125ZM66.8938 96.7101L67.6588 97.7086L67.6789 97.6922L66.8938 96.7101ZM60.0396 90.4614V89.2036H58.7814V90.4614H60.0396ZM60.0396 97.4044H58.7814V98.6622H60.0396V97.4044ZM57.5032 89.5156H64.6594V87H57.5032V89.5156ZM64.6594 89.5156C66.2371 89.5156 67.3115 89.9397 68.0437 90.6439L69.7875 88.83C68.4665 87.562 66.7026 87 64.6594 87V89.5156ZM68.0437 90.6439C68.7835 91.3547 69.1987 92.3241 69.1987 93.6914H71.715C71.715 91.7583 71.101 90.0914 69.7875 88.83L68.0437 90.6439ZM69.1987 93.6914C69.1987 94.7575 68.937 95.4284 68.5671 95.8591L70.4745 97.5008C71.3501 96.4824 71.715 95.161 71.715 93.6914H69.1987ZM68.5546 95.8747C68.1167 96.3996 67.543 96.7838 66.7881 97.019L67.5405 99.4199C68.7206 99.0514 69.717 98.4091 70.487 97.4852L68.5546 95.8747ZM65.9075 98.2195V98.31H68.4237V98.2195H65.9075ZM66.8737 99.5339C67.8576 99.7671 68.6124 100.193 69.1937 100.788L70.9953 99.0323C70.0442 98.0575 68.8489 97.4165 67.4549 97.0862L66.8737 99.5339ZM69.2037 100.799C69.6592 101.254 69.9838 102.002 69.9838 103.261H72.5C72.5 101.581 72.0597 100.096 70.9827 99.0204L69.2037 100.799ZM69.9838 103.261C69.9838 103.963 69.8655 104.607 69.6416 105.2L71.9942 106.09C72.3339 105.195 72.5 104.249 72.5 103.261H69.9838ZM69.6416 105.2C69.4176 105.795 69.1031 106.291 68.703 106.705L70.5172 108.45C71.1639 107.777 71.6571 106.986 71.9942 106.09L69.6416 105.2ZM68.6879 106.723C68.3029 107.139 67.8349 107.475 67.2763 107.732L68.323 110.019C69.171 109.632 69.9133 109.103 70.5348 108.432L68.6879 106.723ZM67.2914 107.725C66.7781 107.951 66.2094 108.07 65.5652 108.07V110.586C66.5315 110.586 67.4499 110.404 68.3054 110.026L67.2914 107.725ZM65.5652 108.07H57.5032V110.586H65.5652V108.07ZM58.7613 109.328V88.2578H56.2451V109.328H58.7613ZM64.8104 108.382C66.154 108.382 67.3795 108.082 68.3356 107.328L66.7781 105.352C66.4082 105.644 65.8018 105.867 64.8104 105.867V108.382ZM68.3356 107.328C69.3849 106.5 69.8127 105.277 69.8127 103.925H67.2964C67.2964 104.746 67.0574 105.133 66.7781 105.352L68.3356 107.328ZM69.8127 103.925V102.687H67.2964V103.925H69.8127ZM69.8127 102.687C69.8127 101.346 69.3799 100.137 68.3356 99.3145L66.7781 101.29C67.0624 101.514 67.2964 101.895 67.2964 102.687H69.8127ZM68.3532 99.3288C67.3946 98.545 66.1641 98.2295 64.8104 98.2295V100.745C65.7917 100.745 66.3906 100.973 66.7605 101.276L68.3532 99.3288ZM64.8104 98.2295H60.0396V100.745H64.8104V98.2295ZM58.7814 99.4873V107.125H61.2977V99.4873H58.7814ZM60.0396 108.382H64.8104V105.867H60.0396V108.382ZM64.3876 98.6622C65.6206 98.6622 66.763 98.3958 67.6588 97.7086L66.1263 95.7119C65.8168 95.9505 65.2859 96.1466 64.3876 96.1466V98.6622ZM67.6789 97.6922C68.6552 96.9121 69.0578 95.7802 69.0578 94.5367H66.5415C66.5415 95.2251 66.3402 95.5421 66.1062 95.728L67.6789 97.6922ZM69.0578 94.5367V93.3594H66.5415V94.5367H69.0578ZM69.0578 93.3594C69.0578 92.1158 68.6552 90.9839 67.6789 90.2038L66.1062 92.1681C66.3402 92.354 66.5415 92.671 66.5415 93.3594H69.0578ZM67.6789 90.2038C66.7806 89.4853 65.6332 89.2036 64.3876 89.2036V91.7192C65.2759 91.7192 65.7967 91.9206 66.1062 92.1681L67.6789 90.2038ZM64.3876 89.2036H60.0396V91.7192H64.3876V89.2036ZM58.7814 90.4614V97.4044H61.2977V90.4614H58.7814ZM60.0396 98.6622H64.3876V96.1466H60.0396V98.6622Z" fill="white"/>
<path d="M25.0193 117.879H24.815V135.12H22.5973V114.757H26.0698L33.0148 131.823H33.219V114.757H35.4368V135.12H31.9642L25.0193 117.879ZM46.5132 135.47C45.2681 135.47 44.1982 135.237 43.3033 134.77C42.4085 134.284 41.6692 133.593 41.0856 132.698C40.502 131.804 40.074 130.705 39.8017 129.402C39.5293 128.099 39.3931 126.611 39.3931 124.939C39.3931 123.285 39.5293 121.807 39.8017 120.504C40.074 119.182 40.502 118.073 41.0856 117.179C41.6692 116.284 42.4085 115.603 43.3033 115.136C44.1982 114.65 45.2681 114.407 46.5132 114.407C47.7582 114.407 48.8282 114.65 49.7231 115.136C50.6179 115.603 51.3571 116.284 51.9407 117.179C52.5244 118.073 52.9523 119.182 53.2247 120.504C53.497 121.807 53.6333 123.285 53.6333 124.939C53.6333 126.611 53.497 128.099 53.2247 129.402C52.9523 130.705 52.5244 131.804 51.9407 132.698C51.3571 133.593 50.6179 134.284 49.7231 134.77C48.8282 135.237 47.7582 135.47 46.5132 135.47ZM46.5132 133.34C47.3302 133.34 48.0209 133.185 48.585 132.874C49.1492 132.543 49.6161 132.086 49.9857 131.502C50.3553 130.919 50.6179 130.219 50.7735 129.402C50.9486 128.566 51.0362 127.632 51.0362 126.601V123.276C51.0362 122.264 50.9486 121.341 50.7735 120.504C50.6179 119.668 50.3553 118.958 49.9857 118.375C49.6161 117.791 49.1492 117.344 48.585 117.033C48.0209 116.702 47.3302 116.537 46.5132 116.537C45.6961 116.537 45.0055 116.702 44.4413 117.033C43.8772 117.344 43.4103 117.791 43.0407 118.375C42.6711 118.958 42.3987 119.668 42.2237 120.504C42.068 121.341 41.9902 122.264 41.9902 123.276V126.601C41.9902 127.632 42.068 128.566 42.2237 129.402C42.3987 130.219 42.6711 130.919 43.0407 131.502C43.4103 132.086 43.8772 132.543 44.4413 132.874C45.0055 133.185 45.6961 133.34 46.5132 133.34ZM65.2373 116.887V135.12H62.7862V116.887H55.9871V114.757H72.0364V116.887H65.2373ZM75.38 135.12V114.757H87.9277V116.887H77.8312V123.742H87.5775V125.872H77.8312V132.99H87.9277V135.12H75.38ZM92.8178 114.757H99.7336C101.484 114.757 102.856 115.234 103.848 116.187C104.84 117.14 105.336 118.414 105.336 120.008C105.336 121.234 105.035 122.196 104.432 122.896C103.848 123.597 103.089 124.093 102.156 124.384V124.472C103.303 124.744 104.247 125.259 104.986 126.018C105.725 126.757 106.095 127.836 106.095 129.256C106.095 130.073 105.959 130.841 105.686 131.561C105.414 132.28 105.025 132.903 104.519 133.428C104.033 133.953 103.449 134.371 102.768 134.682C102.107 134.974 101.387 135.12 100.609 135.12H92.8178V114.757ZM99.8795 132.99C101.008 132.99 101.893 132.737 102.535 132.232C103.177 131.726 103.498 130.948 103.498 129.898V128.702C103.498 127.671 103.177 126.903 102.535 126.397C101.893 125.872 101.008 125.609 99.8795 125.609H95.269V132.99H99.8795ZM99.471 123.597C100.502 123.597 101.309 123.373 101.893 122.926C102.477 122.459 102.768 121.759 102.768 120.825V119.687C102.768 118.754 102.477 118.054 101.893 117.587C101.309 117.12 100.502 116.887 99.471 116.887H95.269V123.597H99.471ZM116.503 135.47C115.258 135.47 114.188 135.237 113.293 134.77C112.398 134.284 111.659 133.593 111.075 132.698C110.492 131.804 110.064 130.705 109.791 129.402C109.519 128.099 109.383 126.611 109.383 124.939C109.383 123.285 109.519 121.807 109.791 120.504C110.064 119.182 110.492 118.073 111.075 117.179C111.659 116.284 112.398 115.603 113.293 115.136C114.188 114.65 115.258 114.407 116.503 114.407C117.748 114.407 118.818 114.65 119.713 115.136C120.607 115.603 121.347 116.284 121.93 117.179C122.514 118.073 122.942 119.182 123.214 120.504C123.487 121.807 123.623 123.285 123.623 124.939C123.623 126.611 123.487 128.099 123.214 129.402C122.942 130.705 122.514 131.804 121.93 132.698C121.347 133.593 120.607 134.284 119.713 134.77C118.818 135.237 117.748 135.47 116.503 135.47ZM116.503 133.34C117.32 133.34 118.01 133.185 118.575 132.874C119.139 132.543 119.606 132.086 119.975 131.502C120.345 130.919 120.607 130.219 120.763 129.402C120.938 128.566 121.026 127.632 121.026 126.601V123.276C121.026 122.264 120.938 121.341 120.763 120.504C120.607 119.668 120.345 118.958 119.975 118.375C119.606 117.791 119.139 117.344 118.575 117.033C118.01 116.702 117.32 116.537 116.503 116.537C115.686 116.537 114.995 116.702 114.431 117.033C113.867 117.344 113.4 117.791 113.03 118.375C112.661 118.958 112.388 119.668 112.213 120.504C112.058 121.341 111.98 122.264 111.98 123.276V126.601C111.98 127.632 112.058 128.566 112.213 129.402C112.388 130.219 112.661 130.919 113.03 131.502C113.4 132.086 113.867 132.543 114.431 132.874C114.995 133.185 115.686 133.34 116.503 133.34ZM133.999 135.47C132.754 135.47 131.684 135.237 130.789 134.77C129.894 134.284 129.155 133.593 128.571 132.698C127.988 131.804 127.56 130.705 127.287 129.402C127.015 128.099 126.879 126.611 126.879 124.939C126.879 123.285 127.015 121.807 127.287 120.504C127.56 119.182 127.988 118.073 128.571 117.179C129.155 116.284 129.894 115.603 130.789 115.136C131.684 114.65 132.754 114.407 133.999 114.407C135.244 114.407 136.314 114.65 137.209 115.136C138.104 115.603 138.843 116.284 139.426 117.179C140.01 118.073 140.438 119.182 140.71 120.504C140.983 121.807 141.119 123.285 141.119 124.939C141.119 126.611 140.983 128.099 140.71 129.402C140.438 130.705 140.01 131.804 139.426 132.698C138.843 133.593 138.104 134.284 137.209 134.77C136.314 135.237 135.244 135.47 133.999 135.47ZM133.999 133.34C134.816 133.34 135.507 133.185 136.071 132.874C136.635 132.543 137.102 132.086 137.471 131.502C137.841 130.919 138.104 130.219 138.259 129.402C138.434 128.566 138.522 127.632 138.522 126.601V123.276C138.522 122.264 138.434 121.341 138.259 120.504C138.104 119.668 137.841 118.958 137.471 118.375C137.102 117.791 136.635 117.344 136.071 117.033C135.507 116.702 134.816 116.537 133.999 116.537C133.182 116.537 132.491 116.702 131.927 117.033C131.363 117.344 130.896 117.791 130.526 118.375C130.157 118.958 129.884 119.668 129.709 120.504C129.554 121.341 129.476 122.264 129.476 123.276V126.601C129.476 127.632 129.554 128.566 129.709 129.402C129.884 130.219 130.157 130.919 130.526 131.502C130.896 132.086 131.363 132.543 131.927 132.874C132.491 133.185 133.182 133.34 133.999 133.34ZM150.59 125.143L147.672 128.585V135.12H145.221V114.757H147.672V125.376H147.76L150.445 121.992L156.456 114.757H159.403L152.254 123.334L159.607 135.12H156.748L150.59 125.143Z" fill="white"/>
<path d="M25.0192 117.879L26.1476 117.425L25.8412 116.663H25.0192V117.879ZM24.815 117.879V116.663H23.5991V117.879H24.815ZM24.815 135.12V136.335H26.0308V135.12H24.815ZM22.5973 135.12H21.3814V136.335H22.5973V135.12ZM22.5973 114.757V113.542H21.3814V114.757H22.5973ZM26.0698 114.757L27.1956 114.299L26.8868 113.542H26.0698V114.757ZM33.0147 131.823L31.8889 132.281L32.1977 133.039H33.0147V131.823ZM33.219 131.823V133.039H34.4349V131.823H33.219ZM33.219 114.757V113.542H32.0031V114.757H33.219ZM35.4367 114.757H36.6526V113.542H35.4367V114.757ZM35.4367 135.12V136.335H36.6526V135.12H35.4367ZM31.9642 135.12L30.8359 135.574L31.1423 136.335H31.9642V135.12ZM25.0192 116.663H24.815V119.094H25.0192V116.663ZM23.5991 117.879V135.12H26.0308V117.879H23.5991ZM24.815 133.904H22.5973V136.335H24.815V133.904ZM23.8132 135.12V114.757H21.3814V135.12H23.8132ZM22.5973 115.973H26.0698V113.542H22.5973V115.973ZM24.9439 115.215L31.8889 132.281L34.1406 131.365L27.1956 114.299L24.9439 115.215ZM33.0147 133.039H33.219V130.608H33.0147V133.039ZM34.4349 131.823V114.757H32.0031V131.823H34.4349ZM33.219 115.973H35.4367V113.542H33.219V115.973ZM34.2209 114.757V135.12H36.6526V114.757H34.2209ZM35.4367 133.904H31.9642V136.335H35.4367V133.904ZM33.0925 134.666L26.1476 117.425L23.891 118.333L30.8359 135.574L33.0925 134.666ZM43.3033 134.77L42.7245 135.838L42.7416 135.847L43.3033 134.77ZM39.8016 120.504L40.9932 120.753V120.749L39.8016 120.504ZM43.3033 115.136L43.8675 116.214L43.8845 116.204L43.3033 115.136ZM49.723 115.136L49.1443 116.205L49.1613 116.214L49.723 115.136ZM53.2247 120.504L52.0356 120.749V120.753L53.2247 120.504ZM49.723 134.77L50.2872 135.848L50.3042 135.838L49.723 134.77ZM48.585 132.874L49.1735 133.938L49.2002 133.922L48.585 132.874ZM50.7735 129.402L49.5844 129.153L49.5795 129.174L50.7735 129.402ZM50.7735 120.504L49.5795 120.727L49.5844 120.753L50.7735 120.504ZM48.585 117.033L47.9697 118.082L47.9989 118.097L48.585 117.033ZM44.4413 117.033L45.0298 118.097L45.0566 118.081L44.4413 117.033ZM42.2236 120.504L41.0345 120.255L41.0296 120.282L42.2236 120.504ZM42.2236 129.402L41.0296 129.624L41.0345 129.657L42.2236 129.402ZM44.4413 132.874L43.8261 133.923L43.8553 133.938L44.4413 132.874ZM46.5132 134.254C45.4189 134.254 44.5508 134.049 43.8675 133.692L42.7416 135.847C43.8456 136.424 45.1173 136.685 46.5132 136.685V134.254ZM43.8845 133.702C43.1769 133.317 42.5835 132.769 42.1045 132.035L40.0691 133.362C40.7573 134.417 41.6424 135.251 42.7245 135.838L43.8845 133.702ZM42.1045 132.035C41.6205 131.293 41.2412 130.344 40.9932 129.153L38.6125 129.651C38.9092 131.067 39.3834 132.314 40.0691 133.362L42.1045 132.035ZM40.9932 129.153C40.7403 127.95 40.609 126.548 40.609 124.939H38.1773C38.1773 126.674 38.3183 128.248 38.6125 129.651L40.9932 129.153ZM40.609 124.939C40.609 123.35 40.7403 121.957 40.9932 120.753L38.6125 120.256C38.3183 121.657 38.1773 123.221 38.1773 124.939H40.609ZM40.9932 120.749C41.2436 119.538 41.623 118.581 42.1045 117.842L40.0691 116.515C39.3834 117.566 38.9068 118.825 38.6125 120.259L40.9932 120.749ZM42.1045 117.842C42.5811 117.112 43.1671 116.579 43.8675 116.214L42.7416 114.059C41.6497 114.628 40.7597 115.456 40.0691 116.515L42.1045 117.842ZM43.8845 116.204C44.5654 115.834 45.4262 115.623 46.5132 115.623V113.192C45.1101 113.192 43.831 113.466 42.7245 114.069L43.8845 116.204ZM46.5132 115.623C47.6001 115.623 48.461 115.835 49.1443 116.205L50.3042 114.069C49.1953 113.466 47.9162 113.192 46.5132 113.192V115.623ZM49.1613 116.214C49.8592 116.579 50.4476 117.112 50.9243 117.842L52.9596 116.515C52.269 115.456 51.3766 114.628 50.2872 114.059L49.1613 116.214ZM50.9243 117.842C51.4057 118.581 51.7851 119.538 52.0356 120.749L54.4162 120.259C54.122 118.825 53.6454 117.566 52.9596 116.515L50.9243 117.842ZM52.0356 120.753C52.286 121.957 52.4174 123.35 52.4174 124.939H54.8491C54.8491 123.221 54.708 121.657 54.4162 120.256L52.0356 120.753ZM52.4174 124.939C52.4174 126.548 52.286 127.95 52.0356 129.153L54.4162 129.651C54.708 128.248 54.8491 126.674 54.8491 124.939H52.4174ZM52.0356 129.153C51.7875 130.344 51.4057 131.293 50.9243 132.035L52.9596 133.362C53.6429 132.314 54.1195 131.067 54.4162 129.651L52.0356 129.153ZM50.9243 132.035C50.4452 132.769 49.8519 133.317 49.1443 133.702L50.3042 135.838C51.3863 135.25 52.2714 134.417 52.9596 133.362L50.9243 132.035ZM49.1613 133.692C48.4756 134.049 47.6074 134.254 46.5132 134.254V136.685C47.909 136.685 49.1807 136.424 50.2872 135.848L49.1613 133.692ZM46.5132 134.556C47.4834 134.556 48.388 134.372 49.1735 133.938L47.9989 131.809C47.6561 131.998 47.1794 132.125 46.5132 132.125V134.556ZM49.2002 133.922C49.9419 133.488 50.5474 132.891 51.0142 132.153L48.9594 130.852C48.6871 131.281 48.3588 131.598 47.9697 131.825L49.2002 133.922ZM51.0142 132.153C51.4787 131.417 51.79 130.567 51.9675 129.63L49.5795 129.174C49.4482 129.871 49.2318 130.421 48.9594 130.852L51.0142 132.153ZM51.9651 129.651C52.1596 128.718 52.252 127.699 52.252 126.601H49.8203C49.8203 127.565 49.74 128.413 49.5844 129.153L51.9651 129.651ZM52.252 126.601V123.276H49.8203V126.601H52.252ZM52.252 123.276C52.252 122.196 52.1596 121.187 51.9651 120.255L49.5844 120.753C49.74 121.494 49.8203 122.333 49.8203 123.276H52.252ZM51.9699 120.282C51.7924 119.328 51.4836 118.465 51.0142 117.724L48.9594 119.025C49.2294 119.451 49.4458 120.008 49.5795 120.727L51.9699 120.282ZM51.0142 117.724C50.5425 116.981 49.9297 116.386 49.1735 115.968L47.9989 118.097C48.371 118.302 48.692 118.601 48.9594 119.025L51.0142 117.724ZM49.2002 115.984C48.4099 115.52 47.4931 115.321 46.5132 115.321V117.752C47.1673 117.752 47.6342 117.885 47.9697 118.082L49.2002 115.984ZM46.5132 115.321C45.5332 115.321 44.6189 115.52 43.8261 115.984L45.0566 118.081C45.3946 117.884 45.859 117.752 46.5132 117.752V115.321ZM43.8553 115.968C43.099 116.386 42.4863 116.981 42.0145 117.724L44.0693 119.025C44.3368 118.601 44.6578 118.302 45.0298 118.097L43.8553 115.968ZM42.0145 117.724C41.5501 118.456 41.2315 119.309 41.0345 120.255L43.4151 120.753C43.5659 120.027 43.7921 119.46 44.0693 119.025L42.0145 117.724ZM41.0296 120.282C40.857 121.204 40.7743 122.203 40.7743 123.276H43.206C43.206 122.325 43.279 121.477 43.42 120.727L41.0296 120.282ZM40.7743 123.276V126.601H43.206V123.276H40.7743ZM40.7743 126.601C40.7743 127.692 40.857 128.701 41.0296 129.624L43.42 129.18C43.2814 128.43 43.206 127.573 43.206 126.601H40.7743ZM41.0345 129.657C41.2339 130.585 41.5525 131.426 42.0145 132.153L44.0693 130.852C43.7896 130.412 43.5635 129.852 43.4127 129.147L41.0345 129.657ZM42.0145 132.153C42.4814 132.891 43.0869 133.489 43.8261 133.923L45.0566 131.825C44.6699 131.598 44.3416 131.281 44.0693 130.852L42.0145 132.153ZM43.8553 133.938C44.6407 134.371 45.5453 134.556 46.5132 134.556V132.125C45.8493 132.125 45.3727 131.998 45.0298 131.809L43.8553 133.938ZM65.2373 116.887V115.671H64.0215V116.887H65.2373ZM65.2373 135.12V136.335H66.4532V135.12H65.2373ZM62.7862 135.12H61.5703V136.335H62.7862V135.12ZM62.7862 116.887H64.002V115.671H62.7862V116.887ZM55.9871 116.887H54.7712V118.102H55.9871V116.887ZM55.9871 114.757V113.542H54.7712V114.757H55.9871ZM72.0364 114.757H73.2523V113.542H72.0364V114.757ZM72.0364 116.887V118.102H73.2523V116.887H72.0364ZM64.0215 116.887V135.12H66.4532V116.887H64.0215ZM65.2373 133.904H62.7862V136.335H65.2373V133.904ZM64.002 135.12V116.887H61.5703V135.12H64.002ZM62.7862 115.671H55.9871V118.102H62.7862V115.671ZM57.2029 116.887V114.757H54.7712V116.887H57.2029ZM55.9871 115.973H72.0364V113.542H55.9871V115.973ZM70.8205 114.757V116.887H73.2523V114.757H70.8205ZM72.0364 115.671H65.2373V118.102H72.0364V115.671ZM75.38 135.12H74.1641V136.335H75.38V135.12ZM75.38 114.757V113.542H74.1641V114.757H75.38ZM87.9276 114.757H89.1435V113.542H87.9276V114.757ZM87.9276 116.887V118.102H89.1435V116.887H87.9276ZM77.8312 116.887V115.671H76.6153V116.887H77.8312ZM77.8312 123.742H76.6153V124.958H77.8312V123.742ZM87.5775 123.742H88.7933V122.527H87.5775V123.742ZM87.5775 125.872V127.088H88.7933V125.872H87.5775ZM77.8312 125.872V124.657H76.6153V125.872H77.8312ZM77.8312 132.99H76.6153V134.206H77.8312V132.99ZM87.9276 132.99H89.1435V131.775H87.9276V132.99ZM87.9276 135.12V136.335H89.1435V135.12H87.9276ZM76.5959 135.12V114.757H74.1641V135.12H76.5959ZM75.38 115.973H87.9276V113.542H75.38V115.973ZM86.7118 114.757V116.887H89.1435V114.757H86.7118ZM87.9276 115.671H77.8312V118.102H87.9276V115.671ZM76.6153 116.887V123.742H79.047V116.887H76.6153ZM77.8312 124.958H87.5775V122.527H77.8312V124.958ZM86.3616 123.742V125.872H88.7933V123.742H86.3616ZM87.5775 124.657H77.8312V127.088H87.5775V124.657ZM76.6153 125.872V132.99H79.047V125.872H76.6153ZM77.8312 134.206H87.9276V131.775H77.8312V134.206ZM86.7118 132.99V135.12H89.1435V132.99H86.7118ZM87.9276 133.904H75.38V136.335H87.9276V133.904ZM92.8178 114.757V113.542H91.602V114.757H92.8178ZM104.432 122.896L103.51 122.103L103.498 122.118L104.432 122.896ZM102.156 124.384L101.793 123.224L100.94 123.491V124.384H102.156ZM102.156 124.472H100.94V125.433L101.876 125.654L102.156 124.472ZM104.986 126.018L104.116 126.866L104.128 126.878L104.986 126.018ZM104.519 133.428L103.644 132.584L103.627 132.602L104.519 133.428ZM102.768 134.682L103.26 135.794L103.274 135.788L102.768 134.682ZM92.8178 135.12H91.602V136.335H92.8178V135.12ZM102.535 126.397L101.766 127.338L101.784 127.352L102.535 126.397ZM95.269 125.609V124.394H94.0531V125.609H95.269ZM95.269 132.99H94.0531V134.206H95.269V132.99ZM101.893 122.926L102.635 123.89L102.654 123.875L101.893 122.926ZM95.269 116.887V115.671H94.0531V116.887H95.269ZM95.269 123.597H94.0531V124.812H95.269V123.597ZM92.8178 115.973H99.7336V113.542H92.8178V115.973ZM99.7336 115.973C101.261 115.973 102.297 116.383 103.007 117.063L104.692 115.31C103.415 114.085 101.711 113.542 99.7336 113.542V115.973ZM103.007 117.063C103.722 117.75 104.12 118.687 104.12 120.008H106.552C106.552 118.14 105.961 116.529 104.692 115.31L103.007 117.063ZM104.12 120.008C104.12 121.039 103.87 121.687 103.51 122.103L105.353 123.69C106.202 122.706 106.552 121.429 106.552 120.008H104.12ZM103.498 122.118C103.075 122.626 102.52 122.997 101.793 123.224L102.518 125.544C103.658 125.188 104.621 124.568 105.365 123.675L103.498 122.118ZM100.94 124.384V124.472H103.371V124.384H100.94ZM101.876 125.654C102.824 125.88 103.556 126.291 104.116 126.866L105.857 125.17C104.94 124.228 103.782 123.608 102.438 123.289L101.876 125.654ZM104.128 126.878C104.565 127.317 104.879 128.04 104.879 129.256H107.311C107.311 127.633 106.885 126.197 105.847 125.158L104.128 126.878ZM104.879 129.256C104.879 129.935 104.767 130.557 104.551 131.131L106.824 131.991C107.153 131.126 107.311 130.211 107.311 129.256H104.879ZM104.551 131.131C104.332 131.705 104.03 132.184 103.644 132.584L105.395 134.271C106.022 133.621 106.496 132.856 106.824 131.991L104.551 131.131ZM103.627 132.602C103.255 133.004 102.805 133.329 102.263 133.577L103.274 135.788C104.094 135.413 104.811 134.902 105.412 134.254L103.627 132.602ZM102.277 133.57C101.784 133.789 101.232 133.904 100.609 133.904V136.335C101.543 136.335 102.433 136.159 103.26 135.794L102.277 133.57ZM100.609 133.904H92.8178V136.335H100.609V133.904ZM94.0337 135.12V114.757H91.602V135.12H94.0337ZM99.8795 134.206C101.178 134.206 102.362 133.915 103.289 133.186L101.784 131.277C101.424 131.56 100.838 131.775 99.8795 131.775V134.206ZM103.289 133.186C104.303 132.387 104.714 131.205 104.714 129.898H102.282C102.282 130.691 102.051 131.065 101.784 131.277L103.289 133.186ZM104.714 129.898V128.702H102.282V129.898H104.714ZM104.714 128.702C104.714 127.405 104.298 126.237 103.289 125.442L101.784 127.352C102.058 127.568 102.282 127.937 102.282 128.702H104.714ZM103.306 125.456C102.379 124.699 101.188 124.394 99.8795 124.394V126.825C100.828 126.825 101.407 127.045 101.766 127.338L103.306 125.456ZM99.8795 124.394H95.269V126.825H99.8795V124.394ZM94.0531 125.609V132.99H96.4848V125.609H94.0531ZM95.269 134.206H99.8795V131.775H95.269V134.206ZM99.471 124.812C100.665 124.812 101.769 124.555 102.635 123.89L101.154 121.961C100.852 122.191 100.339 122.381 99.471 122.381V124.812ZM102.654 123.875C103.595 123.121 103.984 122.027 103.984 120.825H101.553C101.553 121.49 101.358 121.797 101.134 121.977L102.654 123.875ZM103.984 120.825V119.687H101.553V120.825H103.984ZM103.984 119.687C103.984 118.486 103.595 117.392 102.654 116.638L101.134 118.536C101.358 118.716 101.553 119.022 101.553 119.687H103.984ZM102.654 116.638C101.786 115.944 100.675 115.671 99.471 115.671V118.102C100.329 118.102 100.835 118.297 101.134 118.536L102.654 116.638ZM99.471 115.671H95.269V118.102H99.471V115.671ZM94.0531 116.887V123.597H96.4848V116.887H94.0531ZM95.269 124.812H99.471V122.381H95.269V124.812ZM113.293 134.77L112.712 135.838L112.729 135.847L113.293 134.77ZM109.791 120.504L110.98 120.753V120.749L109.791 120.504ZM113.293 115.136L113.855 116.214L113.872 116.204L113.293 115.136ZM119.713 115.136L119.131 116.205L119.148 116.214L119.713 115.136ZM123.214 120.504L122.023 120.749V120.753L123.214 120.504ZM119.713 134.77L120.274 135.848L120.291 135.838L119.713 134.77ZM118.574 132.874L119.161 133.938L119.187 133.922L118.574 132.874ZM120.763 129.402L119.571 129.153L119.567 129.174L120.763 129.402ZM120.763 120.504L119.567 120.727L119.571 120.753L120.763 120.504ZM118.574 117.033L117.959 118.082L117.986 118.097L118.574 117.033ZM114.431 117.033L115.017 118.097L115.044 118.081L114.431 117.033ZM112.213 120.504L111.022 120.255L111.017 120.282L112.213 120.504ZM112.213 129.402L111.017 129.624L111.024 129.657L112.213 129.402ZM114.431 132.874L113.816 133.923L113.842 133.938L114.431 132.874ZM116.503 134.254C115.408 134.254 114.54 134.049 113.855 133.692L112.729 135.847C113.833 136.424 115.107 136.685 116.503 136.685V134.254ZM113.872 133.702C113.164 133.317 112.571 132.769 112.092 132.035L110.056 133.362C110.744 134.417 111.63 135.251 112.712 135.838L113.872 133.702ZM112.092 132.035C111.61 131.293 111.228 130.344 110.98 129.153L108.6 129.651C108.896 131.067 109.373 132.314 110.056 133.362L112.092 132.035ZM110.98 129.153C110.73 127.95 110.598 126.548 110.598 124.939H108.167C108.167 126.674 108.308 128.248 108.6 129.651L110.98 129.153ZM110.598 124.939C110.598 123.35 110.727 121.957 110.98 120.753L108.6 120.256C108.308 121.657 108.167 123.221 108.167 124.939H110.598ZM110.98 120.749C111.231 119.538 111.61 118.581 112.092 117.842L110.056 116.515C109.37 117.566 108.894 118.825 108.6 120.259L110.98 120.749ZM112.092 117.842C112.568 117.112 113.154 116.579 113.855 116.214L112.729 114.059C111.639 114.628 110.747 115.456 110.056 116.515L112.092 117.842ZM113.872 116.204C114.552 115.834 115.416 115.623 116.503 115.623V113.192C115.1 113.192 113.82 113.466 112.712 114.069L113.872 116.204ZM116.503 115.623C117.59 115.623 118.45 115.835 119.131 116.205L120.291 114.069C119.182 113.466 117.906 113.192 116.503 113.192V115.623ZM119.148 116.214C119.849 116.579 120.435 117.112 120.911 117.842L122.947 116.515C122.256 115.456 121.364 114.628 120.274 114.059L119.148 116.214ZM120.911 117.842C121.393 118.581 121.772 119.538 122.023 120.749L124.403 120.259C124.109 118.825 123.632 117.566 122.947 116.515L120.911 117.842ZM122.023 120.753C122.276 121.957 122.407 123.35 122.407 124.939H124.839C124.839 123.221 124.695 121.657 124.403 120.256L122.023 120.753ZM122.407 124.939C122.407 126.548 122.276 127.95 122.023 129.153L124.403 129.651C124.698 128.248 124.839 126.674 124.839 124.939H122.407ZM122.023 129.153C121.775 130.344 121.395 131.293 120.911 132.035L122.947 133.362C123.632 132.314 124.107 131.067 124.403 129.651L122.023 129.153ZM120.911 132.035C120.432 132.769 119.839 133.317 119.131 133.702L120.291 135.838C121.373 135.25 122.259 134.417 122.947 133.362L120.911 132.035ZM119.148 133.692C118.463 134.049 117.597 134.254 116.503 134.254V136.685C117.898 136.685 119.17 136.424 120.274 135.848L119.148 133.692ZM116.503 134.556C117.47 134.556 118.375 134.372 119.161 133.938L117.986 131.809C117.643 131.998 117.167 132.125 116.503 132.125V134.556ZM119.187 133.922C119.929 133.488 120.534 132.891 121.001 132.153L118.947 130.852C118.674 131.281 118.346 131.598 117.959 131.825L119.187 133.922ZM121.001 132.153C121.468 131.417 121.777 130.567 121.957 129.63L119.567 129.174C119.435 129.871 119.219 130.421 118.947 130.852L121.001 132.153ZM121.952 129.651C122.147 128.718 122.241 127.699 122.241 126.601H119.81C119.81 127.565 119.727 128.413 119.571 129.153L121.952 129.651ZM122.241 126.601V123.276H119.81V126.601H122.241ZM122.241 123.276C122.241 122.196 122.147 121.187 121.952 120.255L119.571 120.753C119.727 121.494 119.81 122.333 119.81 123.276H122.241ZM121.957 120.282C121.779 119.328 121.471 118.465 121.001 117.724L118.947 119.025C119.216 119.451 119.433 120.008 119.567 120.727L121.957 120.282ZM121.001 117.724C120.53 116.981 119.917 116.386 119.161 115.968L117.986 118.097C118.358 118.302 118.679 118.601 118.947 119.025L121.001 117.724ZM119.187 115.984C118.397 115.52 117.483 115.321 116.503 115.321V117.752C117.157 117.752 117.621 117.885 117.959 118.082L119.187 115.984ZM116.503 115.321C115.523 115.321 114.606 115.52 113.816 115.984L115.044 118.081C115.382 117.884 115.849 117.752 116.503 117.752V115.321ZM113.842 115.968C113.086 116.386 112.473 116.981 112.002 117.724L114.056 119.025C114.324 118.601 114.645 118.302 115.017 118.097L113.842 115.968ZM112.002 117.724C111.54 118.456 111.221 119.309 111.022 120.255L113.402 120.753C113.553 120.027 113.782 119.46 114.056 119.025L112.002 117.724ZM111.017 120.282C110.844 121.204 110.764 122.203 110.764 123.276H113.196C113.196 122.325 113.268 121.477 113.407 120.727L111.017 120.282ZM110.764 123.276V126.601H113.196V123.276H110.764ZM110.764 126.601C110.764 127.692 110.844 128.701 111.017 129.624L113.407 129.18C113.268 128.43 113.196 127.573 113.196 126.601H110.764ZM111.024 129.657C111.223 130.585 111.542 131.426 112.002 132.153L114.056 130.852C113.777 130.412 113.553 129.852 113.4 129.147L111.024 129.657ZM112.002 132.153C112.468 132.891 113.074 133.489 113.816 133.923L115.044 131.825C114.657 131.598 114.329 131.281 114.056 130.852L112.002 132.153ZM113.842 133.938C114.628 134.371 115.532 134.556 116.503 134.556V132.125C115.836 132.125 115.36 131.998 115.017 131.809L113.842 133.938ZM130.789 134.77L130.208 135.838L130.227 135.847L130.789 134.77ZM127.287 120.504L128.476 120.753L128.479 120.749L127.287 120.504ZM130.789 115.136L131.351 116.214L131.37 116.204L130.789 115.136ZM137.209 115.136L136.627 116.205L136.647 116.214L137.209 115.136ZM140.71 120.504L139.519 120.749V120.753L140.71 120.504ZM137.209 134.77L137.77 135.848L137.79 135.838L137.209 134.77ZM136.071 132.874L136.657 133.938L136.686 133.922L136.071 132.874ZM138.259 129.402L137.068 129.153L137.065 129.174L138.259 129.402ZM138.259 120.504L137.063 120.727L137.068 120.753L138.259 120.504ZM136.071 117.033L135.455 118.082L135.482 118.097L136.071 117.033ZM131.927 117.033L132.513 118.097L132.542 118.081L131.927 117.033ZM129.709 120.504L128.518 120.255L128.513 120.282L129.709 120.504ZM129.709 129.402L128.513 129.624L128.52 129.657L129.709 129.402ZM131.927 132.874L131.312 133.923L131.339 133.938L131.927 132.874ZM133.999 134.254C132.905 134.254 132.036 134.049 131.351 133.692L130.227 135.847C131.331 136.424 132.603 136.685 133.999 136.685V134.254ZM131.37 133.702C130.66 133.317 130.069 132.769 129.59 132.035L127.552 133.362C128.241 134.417 129.128 135.251 130.208 135.838L131.37 133.702ZM129.59 132.035C129.106 131.293 128.727 130.344 128.476 129.153L126.096 129.651C126.392 131.067 126.869 132.314 127.552 133.362L129.59 132.035ZM128.476 129.153C128.226 127.95 128.095 126.548 128.095 124.939H125.663C125.663 126.674 125.804 128.248 126.096 129.651L128.476 129.153ZM128.095 124.939C128.095 123.35 128.226 121.957 128.476 120.753L126.096 120.256C125.804 121.657 125.663 123.221 125.663 124.939H128.095ZM128.479 120.749C128.727 119.538 129.109 118.581 129.59 117.842L127.552 116.515C126.867 117.566 126.392 118.825 126.096 120.259L128.479 120.749ZM129.59 117.842C130.067 117.112 130.653 116.579 131.351 116.214L130.227 114.059C129.135 114.628 128.243 115.456 127.552 116.515L129.59 117.842ZM131.37 116.204C132.051 115.834 132.912 115.623 133.999 115.623V113.192C132.596 113.192 131.317 113.466 130.208 114.069L131.37 116.204ZM133.999 115.623C135.086 115.623 135.947 115.835 136.627 116.205L137.79 114.069C136.681 113.466 135.402 113.192 133.999 113.192V115.623ZM136.647 116.214C137.345 116.579 137.931 117.112 138.408 117.842L140.445 116.515C139.755 115.456 138.862 114.628 137.77 114.059L136.647 116.214ZM138.408 117.842C138.889 118.581 139.271 119.538 139.519 120.749L141.902 120.259C141.605 118.825 141.131 117.566 140.445 116.515L138.408 117.842ZM139.519 120.753C139.772 121.957 139.903 123.35 139.903 124.939H142.335C142.335 123.221 142.194 121.657 141.899 120.256L139.519 120.753ZM139.903 124.939C139.903 126.548 139.772 127.95 139.519 129.153L141.899 129.651C142.194 128.248 142.335 126.674 142.335 124.939H139.903ZM139.519 129.153C139.271 130.344 138.891 131.293 138.408 132.035L140.445 133.362C141.129 132.314 141.605 131.067 141.899 129.651L139.519 129.153ZM138.408 132.035C137.928 132.769 137.338 133.317 136.627 133.702L137.79 135.838C138.87 135.25 139.757 134.417 140.445 133.362L138.408 132.035ZM136.647 133.692C135.961 134.049 135.093 134.254 133.999 134.254V136.685C135.395 136.685 136.666 136.424 137.77 135.848L136.647 133.692ZM133.999 134.556C134.967 134.556 135.871 134.372 136.657 133.938L135.482 131.809C135.142 131.998 134.665 132.125 133.999 132.125V134.556ZM136.686 133.922C137.425 133.488 138.031 132.891 138.497 132.153L136.443 130.852C136.173 131.281 135.842 131.598 135.455 131.825L136.686 133.922ZM138.497 132.153C138.964 131.417 139.276 130.567 139.453 129.63L137.065 129.174C136.931 129.871 136.717 130.421 136.443 130.852L138.497 132.153ZM139.448 129.651C139.645 128.718 139.738 127.699 139.738 126.601H137.306C137.306 127.565 137.223 128.413 137.068 129.153L139.448 129.651ZM139.738 126.601V123.276H137.306V126.601H139.738ZM139.738 123.276C139.738 122.196 139.643 121.187 139.448 120.255L137.068 120.753C137.223 121.494 137.306 122.333 137.306 123.276H139.738ZM139.453 120.282C139.276 119.328 138.967 118.465 138.497 117.724L136.443 119.025C136.715 119.451 136.929 120.008 137.063 120.727L139.453 120.282ZM138.497 117.724C138.028 116.981 137.413 116.386 136.657 115.968L135.482 118.097C135.854 118.302 136.175 118.601 136.443 119.025L138.497 117.724ZM136.686 115.984C135.893 115.52 134.979 115.321 133.999 115.321V117.752C134.653 117.752 135.12 117.885 135.455 118.082L136.686 115.984ZM133.999 115.321C133.019 115.321 132.105 115.52 131.312 115.984L132.542 118.081C132.878 117.884 133.345 117.752 133.999 117.752V115.321ZM131.339 115.968C130.582 116.386 129.969 116.981 129.498 117.724L131.553 119.025C131.822 118.601 132.141 118.302 132.513 118.097L131.339 115.968ZM129.498 117.724C129.036 118.456 128.717 119.309 128.518 120.255L130.898 120.753C131.052 120.027 131.278 119.46 131.553 119.025L129.498 117.724ZM128.513 120.282C128.343 121.204 128.26 122.203 128.26 123.276H130.692C130.692 122.325 130.765 121.477 130.903 120.727L128.513 120.282ZM128.26 123.276V126.601H130.692V123.276H128.26ZM128.26 126.601C128.26 127.692 128.343 128.701 128.513 129.624L130.903 129.18C130.765 128.43 130.692 127.573 130.692 126.601H128.26ZM128.52 129.657C128.72 130.585 129.038 131.426 129.498 132.153L131.553 130.852C131.275 130.412 131.049 129.852 130.898 129.147L128.52 129.657ZM129.498 132.153C129.967 132.891 130.57 133.489 131.312 133.923L132.542 131.825C132.153 131.598 131.825 131.281 131.553 130.852L129.498 132.153ZM131.339 133.938C132.126 134.371 133.031 134.556 133.999 134.556V132.125C133.333 132.125 132.856 131.998 132.513 131.809L131.339 133.938ZM150.59 125.143L151.626 124.505L150.746 123.079L149.664 124.357L150.59 125.143ZM147.672 128.585L146.746 127.799L146.456 128.139V128.585H147.672ZM147.672 135.12V136.335H148.888V135.12H147.672ZM145.221 135.12H144.005V136.335H145.221V135.12ZM145.221 114.757V113.542H144.005V114.757H145.221ZM147.672 114.757H148.888V113.542H147.672V114.757ZM147.672 125.376H146.456V126.592H147.672V125.376ZM147.76 125.376V126.592H148.348L148.713 126.131L147.76 125.376ZM150.444 121.992L149.508 121.215L149.491 121.237L150.444 121.992ZM156.456 114.757V113.542H155.887L155.522 113.981L156.456 114.757ZM159.403 114.757L160.337 115.535L162 113.542H159.403V114.757ZM152.254 123.334L151.32 122.556L150.758 123.231L151.223 123.977L152.254 123.334ZM159.607 135.12V136.335H161.798L160.638 134.477L159.607 135.12ZM156.747 135.12L155.714 135.758L156.069 136.335H156.747V135.12ZM149.664 124.357L146.746 127.799L148.601 129.371L151.519 125.929L149.664 124.357ZM146.456 128.585V135.12H148.888V128.585H146.456ZM147.672 133.904H145.221V136.335H147.672V133.904ZM146.437 135.12V114.757H144.005V135.12H146.437ZM145.221 115.973H147.672V113.542H145.221V115.973ZM146.456 114.757V125.376H148.888V114.757H146.456ZM147.672 126.592H147.76V124.161H147.672V126.592ZM148.713 126.131L151.398 122.747L149.491 121.237L146.807 124.621L148.713 126.131ZM151.381 122.769L157.392 115.534L155.522 113.981L149.511 121.215L151.381 122.769ZM156.456 115.973H159.403V113.542H156.456V115.973ZM158.469 113.979L151.32 122.556L153.187 124.112L160.337 115.535L158.469 113.979ZM151.223 123.977L158.576 135.763L160.638 134.477L153.285 122.691L151.223 123.977ZM159.607 133.904H156.747V136.335H159.607V133.904ZM157.783 134.482L151.626 124.505L149.557 125.781L155.714 135.758L157.783 134.482Z" fill="white"/>
</g>
<defs>
<clipPath id="clip0_2_35">
<rect width="183" height="142" fill="white"/>
</clipPath>
</defs>
</svg>
